<svg width="1148" height="124" viewBox="0 0 1148 124" fill="none" xmlns="http://www.w3.org/2000/svg">
<g clip-path="url(#clip0_372_691)">
<path d="M869.678 107.347L869.193 106.785C873.297 103.292 878.406 98.9463 880.318 93.202C882.203 87.5393 880.785 80.7029 876.618 75.3605C873.071 70.8138 867.595 67.2335 860.78 65.0065C859.436 64.5672 858.041 64.177 856.691 63.7995C853.429 62.8874 850.056 61.944 847.068 60.2201C842.954 57.8455 839.216 53.1814 840.142 48.1143C840.457 46.493 841.223 44.9916 842.354 43.7807C843.484 42.5698 844.934 41.6979 846.539 41.2639L846.737 41.9776C845.267 42.3749 843.939 43.1734 842.902 44.2824C841.866 45.3914 841.164 46.7665 840.875 48.2517C840.015 52.9605 843.554 57.3354 847.443 59.5802C850.349 61.2569 853.676 62.1873 856.893 63.087C858.25 63.4665 859.654 63.8591 861.014 64.3034C867.97 66.5768 873.569 70.2434 877.207 74.9072C881.525 80.4416 882.988 87.5408 881.026 93.4343C879.049 99.3742 873.853 103.795 869.678 107.347Z" fill="#F1F1F1"/>
<path d="M851.989 44.0868C855.511 43.3313 858.067 41.342 857.697 39.6436C857.327 37.9452 854.172 37.1809 850.65 37.9363C847.128 38.6918 844.572 40.6811 844.942 42.3795C845.311 44.0779 848.466 44.8423 851.989 44.0868Z" fill="#F1F1F1"/>
<path d="M861.5 63.2527C865.023 62.4972 867.578 60.5079 867.209 58.8095C866.839 57.1111 863.684 56.3467 860.162 57.1022C856.639 57.8577 854.084 59.847 854.453 61.5454C854.823 63.2438 857.978 64.0081 861.5 63.2527Z" fill="#F1F1F1"/>
<path d="M850.547 69.0101C854.069 68.2546 856.625 66.2654 856.255 64.567C855.886 62.8686 852.731 62.1042 849.208 62.8597C845.686 63.6152 843.13 65.6044 843.5 67.3028C843.869 69.0012 847.025 69.7656 850.547 69.0101Z" fill="#F1F1F1"/>
<path d="M942.246 65.9601H941.5V68.1809H942.246V65.9601Z" fill="#E5E5E5"/>
<path d="M942.246 115.499H941.5V110.767H942.246V115.499ZM942.246 106.036H941.5V101.304H942.246V106.036ZM942.246 96.5719H941.5V91.8401H942.246V96.5719ZM942.246 87.1082H941.5V82.3763H942.246V87.1082ZM942.246 77.6446H941.5V72.9127H942.246V77.6446Z" fill="#E5E5E5"/>
<path d="M942.246 120.231H941.5V122.452H942.246V120.231Z" fill="#E5E5E5"/>
<path d="M1023.9 65.9601H1023.15V68.1809H1023.9V65.9601Z" fill="#E5E5E5"/>
<path d="M1023.9 115.499H1023.15V110.768H1023.9V115.499ZM1023.9 106.036H1023.15V101.304H1023.9V106.036ZM1023.9 96.572H1023.15V91.8402H1023.9V96.572ZM1023.9 87.1083H1023.15V82.3764H1023.9V87.1083ZM1023.9 77.6447H1023.15V72.9128H1023.9V77.6447Z" fill="#E5E5E5"/>
<path d="M1023.9 120.231H1023.15V122.452H1023.9V120.231Z" fill="#E5E5E5"/>
<path d="M1065.09 22.5148H1064.34V24.7356H1065.09V22.5148Z" fill="#E5E5E5"/>
<path d="M1065.09 115.684H1064.34V111.136H1065.09V115.684ZM1065.09 106.589H1064.34V102.041H1065.09V106.589ZM1065.09 97.4941H1064.34V92.9467H1065.09V97.4941ZM1065.09 88.3993H1064.34V83.8519H1065.09V88.3993ZM1065.09 79.3046H1064.34V74.757H1065.09V79.3046ZM1065.09 70.2096H1064.34V65.6622H1065.09V70.2096ZM1065.09 61.1148H1064.34V56.5675H1065.09V61.1148ZM1065.09 52.0201H1064.34V47.4727H1065.09V52.0201ZM1065.09 42.9251H1064.34V38.3777H1065.09V42.9251ZM1065.09 33.8303H1064.34V29.283H1065.09V33.8303Z" fill="#E5E5E5"/>
<path d="M1065.09 120.231H1064.34V122.452H1065.09V120.231Z" fill="#E5E5E5"/>
<path d="M1105.87 4.74811H1105.12V6.96894H1105.87V4.74811Z" fill="#E5E5E5"/>
<path d="M1105.87 115.701H1105.12V111.17H1105.87V115.701ZM1105.87 106.64H1105.12V102.109H1105.87V106.64ZM1105.87 97.5788H1105.12V93.0483H1105.87V97.5788ZM1105.87 88.5179H1105.12V83.9873H1105.87V88.5179ZM1105.87 79.4569H1105.12V74.9263H1105.87V79.4569ZM1105.87 70.3959H1105.12V65.8654H1105.87V70.3959ZM1105.87 61.3349H1105.12V56.8044H1105.87V61.3349ZM1105.87 52.2739H1105.12V47.7434H1105.87V52.2739ZM1105.87 43.213H1105.12V38.6824H1105.87V43.213ZM1105.87 34.152H1105.12V29.6215H1105.87V34.152ZM1105.87 25.091H1105.12V20.5605H1105.87V25.091ZM1105.87 16.03H1105.12V11.4995H1105.87V16.03Z" fill="#E5E5E5"/>
<path d="M1105.87 120.231H1105.12V122.452H1105.87V120.231Z" fill="#E5E5E5"/>
<path d="M983.26 36.2098H982.514V38.4307H983.26V36.2098Z" fill="#E5E5E5"/>
<path d="M983.26 115.926H982.514V111.621H983.26V115.926ZM983.26 107.315H982.514V103.01H983.26V107.315ZM983.26 98.7048H982.514V94.3996H983.26V98.7048ZM983.26 90.0942H982.514V85.789H983.26V90.0942ZM983.26 81.4837H982.514V77.1785H983.26V81.4837ZM983.26 72.8731H982.514V68.5679H983.26V72.8731ZM983.26 64.2625H982.514V59.9573H983.26V64.2625ZM983.26 55.6519H982.514V51.3467H983.26V55.6519ZM983.26 47.0413H982.514V42.7361H983.26V47.0413Z" fill="#E5E5E5"/>
<path d="M983.26 120.231H982.514V122.452H983.26V120.231Z" fill="#E5E5E5"/>
<path d="M1147.23 123.483H900.354C900.149 123.483 899.952 123.402 899.808 123.259C899.663 123.115 899.581 122.92 899.581 122.716V5.25125C899.582 5.04812 899.663 4.85347 899.808 4.71C899.953 4.56653 900.149 4.48596 900.354 4.48596C900.559 4.48596 900.755 4.56653 900.9 4.71C901.044 4.85347 901.126 5.04812 901.126 5.25125V121.949H1147.23C1147.33 121.949 1147.43 121.969 1147.52 122.007C1147.62 122.046 1147.7 122.102 1147.77 122.173C1147.85 122.245 1147.9 122.329 1147.94 122.422C1147.98 122.516 1148 122.615 1148 122.716C1148 122.817 1147.98 122.917 1147.94 123.01C1147.9 123.103 1147.85 123.188 1147.77 123.259C1147.7 123.33 1147.62 123.387 1147.52 123.425C1147.43 123.464 1147.33 123.483 1147.23 123.483Z" fill="#3F3D56"/>
<path d="M1023.87 66.9909L982.821 36.4712L942.336 66.5738L941.41 65.346L982.821 34.5542L1023.67 64.9289L1064.27 20.8291L1064.43 20.7636L1105.38 4.38538L1105.95 5.80856L1065.17 22.1213L1023.87 66.9909Z" fill="#3F3D56"/>
<path d="M941.873 70.5618C944.433 70.5618 946.509 68.5015 946.509 65.96C946.509 63.4185 944.433 61.3581 941.873 61.3581C939.313 61.3581 937.237 63.4185 937.237 65.96C937.237 68.5015 939.313 70.5618 941.873 70.5618Z" fill="#63FF9C"/>
<path d="M982.821 40.6498C985.381 40.6498 987.457 38.5894 987.457 36.0479C987.457 33.5064 985.381 31.446 982.821 31.446C980.261 31.446 978.185 33.5064 978.185 36.0479C978.185 38.5894 980.261 40.6498 982.821 40.6498Z" fill="#63FF9C"/>
<path d="M1023.77 70.5618C1026.33 70.5618 1028.4 68.5015 1028.4 65.96C1028.4 63.4185 1026.33 61.3581 1023.77 61.3581C1021.21 61.3581 1019.13 63.4185 1019.13 65.96C1019.13 68.5015 1021.21 70.5618 1023.77 70.5618Z" fill="#E5E5E5"/>
<path d="M1022.65 86.8479C1025.21 86.8479 1027.29 84.7876 1027.29 82.2461C1027.29 79.7045 1025.21 77.6442 1022.65 77.6442C1020.09 77.6442 1018.01 79.7045 1018.01 82.2461C1018.01 84.7876 1020.09 86.8479 1022.65 86.8479Z" fill="#63FF9C"/>
<path d="M1064.72 26.0772C1067.28 26.0772 1069.35 24.0169 1069.35 21.4753C1069.35 18.9338 1067.28 16.8735 1064.72 16.8735C1062.16 16.8735 1060.08 18.9338 1060.08 21.4753C1060.08 24.0169 1062.16 26.0772 1064.72 26.0772Z" fill="#63FF9C"/>
<path d="M1105.66 9.20372C1108.22 9.20372 1110.3 7.1434 1110.3 4.60186C1110.3 2.06032 1108.22 0 1105.66 0C1103.1 0 1101.03 2.06032 1101.03 4.60186C1101.03 7.1434 1103.1 9.20372 1105.66 9.20372Z" fill="#63FF9C"/>
<path d="M899.068 90.0542C900.652 85.9424 900.881 82.2091 899.581 81.7157C898.28 81.2223 895.943 84.1557 894.36 88.2675C892.777 92.3793 892.547 96.1126 893.848 96.606C895.148 97.0994 897.485 94.166 899.068 90.0542Z" fill="#2F2E41"/>
<path d="M881.872 117.139C890.74 117.139 897.93 110.002 897.93 101.199C897.93 92.3946 890.74 85.2577 881.872 85.2577C873.003 85.2577 865.814 92.3946 865.814 101.199C865.814 110.002 873.003 117.139 881.872 117.139Z" fill="#2F2E41"/>
<path d="M879.433 113.709H874.554V122.386H879.433V113.709Z" fill="#2F2E41"/>
<path d="M889.189 113.709H884.311V122.386H889.189V113.709Z" fill="#2F2E41"/>
<path d="M878.619 124C880.865 124 882.685 123.322 882.685 122.487C882.685 121.651 880.865 120.973 878.619 120.973C876.374 120.973 874.554 121.651 874.554 122.487C874.554 123.322 876.374 124 878.619 124Z" fill="#2F2E41"/>
<path d="M888.376 123.798C890.621 123.798 892.442 123.121 892.442 122.285C892.442 121.449 890.621 120.771 888.376 120.771C886.131 120.771 884.311 121.449 884.311 122.285C884.311 123.121 886.131 123.798 888.376 123.798Z" fill="#2F2E41"/>
<path d="M882.278 102.611C885.309 102.611 887.766 100.172 887.766 97.1628C887.766 94.1539 885.309 91.7147 882.278 91.7147C879.247 91.7147 876.79 94.1539 876.79 97.1628C876.79 100.172 879.247 102.611 882.278 102.611Z" fill="white"/>
<path d="M882.278 98.9789C883.289 98.9789 884.108 98.1658 884.108 97.1629C884.108 96.1599 883.289 95.3468 882.278 95.3468C881.268 95.3468 880.449 96.1599 880.449 97.1629C880.449 98.1658 881.268 98.9789 882.278 98.9789Z" fill="#3F3D56"/>
<path d="M866.295 86.3743C864.998 80.6098 869.143 74.7851 875.552 73.3644C881.962 71.9436 888.209 75.4649 889.505 81.2294C890.802 86.9938 886.554 89.1198 880.145 90.5406C873.735 91.9613 867.592 92.1388 866.295 86.3743Z" fill="#E6E6E6"/>
<path d="M871.04 97.2175C871.636 95.9689 868.872 93.4275 864.865 91.5411C860.859 89.6547 857.128 89.1377 856.531 90.3863C855.935 91.6349 858.699 94.1763 862.705 96.0627C866.712 97.949 870.443 98.466 871.04 97.2175Z" fill="#2F2E41"/>
<path d="M873.984 106.949C873.984 108.51 878.031 111.59 882.521 111.59C887.012 111.59 891.222 107.198 891.222 105.638C891.222 104.078 887.012 105.94 882.521 105.94C878.031 105.94 873.984 105.389 873.984 106.949Z" fill="white"/>
<path d="M1003.1 114.603C1011.97 114.603 1019.15 107.466 1019.15 98.6617C1019.15 89.8578 1011.97 82.7209 1003.1 82.7209C994.229 82.7209 987.039 89.8578 987.039 98.6617C987.039 107.466 994.229 114.603 1003.1 114.603Z" fill="#2F2E41"/>
<path d="M1000.66 111.172H995.78V119.849H1000.66V111.172Z" fill="#2F2E41"/>
<path d="M1010.41 111.172H1005.54V119.849H1010.41V111.172Z" fill="#2F2E41"/>
<path d="M1003.18 122.723C1003.52 121.962 1002.15 120.6 1000.1 119.681C998.055 118.763 996.115 118.636 995.768 119.397C995.421 120.159 996.798 121.521 998.844 122.439C1000.89 123.358 1002.83 123.485 1003.18 122.723Z" fill="#2F2E41"/>
<path d="M1012.51 122.251C1012.88 121.499 1011.54 120.1 1009.52 119.127C1007.5 118.153 1005.57 117.974 1005.2 118.726C1004.83 119.478 1006.17 120.876 1008.19 121.85C1010.21 122.823 1012.15 123.003 1012.51 122.251Z" fill="#2F2E41"/>
<path d="M987.521 83.8372C986.224 78.0728 990.369 72.248 996.778 70.8273C1003.19 69.4066 1009.43 72.9279 1010.73 78.6923C1012.03 84.4568 1007.78 86.5828 1001.37 88.0035C994.961 89.4242 988.817 89.6017 987.521 83.8372Z" fill="#63FF9C"/>
<path d="M1020.4 91.6959C1023.88 88.2409 1025.81 84.5616 1024.72 83.4778C1023.63 82.394 1019.92 84.3163 1016.44 87.7712C1012.97 91.2261 1011.03 94.9055 1012.13 95.9892C1013.22 97.073 1016.92 95.1508 1020.4 91.6959Z" fill="#2F2E41"/>
<path d="M989.916 105.251C991.178 100.531 990.991 96.3848 989.498 95.9915C988.005 95.5982 985.772 99.1062 984.51 103.827C983.248 108.548 983.435 112.693 984.928 113.087C986.421 113.48 988.654 109.972 989.916 105.251Z" fill="#2F2E41"/>
</g>
<path d="M16.0801 39.6406H14.4258V47.418H11.6758V40.0703H10.0859V57.752H11.6758V48.8574H14.4258V58.7402H16.0801V39.6406ZM0.740234 53.7988H1.92188C4.02734 53.7988 6.21875 53.6592 8.88281 53.1758L8.66797 51.6719C6.34766 52.1445 4.30664 52.2842 2.41602 52.2949V41.9824H0.740234V53.7988ZM33.9551 42.3477V42.2188H40.0566V40.8438H25.9414V42.2188H32.0645V42.3477C32.0537 44.9043 28.6592 47.0742 25.3398 47.5684L26.0059 48.9004C28.9385 48.3955 31.8496 46.8057 33.0098 44.5068C34.1699 46.8057 37.0811 48.3955 40.0566 48.9004L40.6797 47.5684C37.3496 47.0742 33.9443 44.9043 33.9551 42.3477ZM24.3086 51.9297H32.1504V58.7402H33.8047V51.9297H41.7109V50.5332H24.3086V51.9297ZM50.0898 42.4121V40.5859H48.3711V42.4121C48.3711 45.3018 46.373 47.9443 43.5156 49.0078L44.3965 50.3398C46.6416 49.4697 48.4033 47.6865 49.2412 45.4199C50.1006 47.5361 51.8516 49.1797 54.0645 49.9961L54.9238 48.6641C52.0879 47.6758 50.0684 45.1943 50.0898 42.4121ZM46.2441 53.498H57.416V58.7402H59.0918V52.1016H46.2441V53.498ZM57.416 51.1562H59.0918V39.6406H57.416V51.1562ZM68.5879 41.0371C65.5693 41.0479 63.4209 42.874 63.4316 45.5273C63.4209 48.1914 65.5693 50.0068 68.5879 50.0176C71.585 50.0068 73.7119 48.1914 73.7227 45.5273C73.7119 42.874 71.585 41.0479 68.5879 41.0371ZM62.4434 53.1328L62.6797 54.5723C66.1172 54.5723 70.8115 54.5508 75.1836 53.7344L75.0547 52.4883C70.833 53.1113 65.9668 53.1436 62.4434 53.1328ZM65.0859 45.5273C65.0752 43.7549 66.5469 42.5195 68.5879 42.5195C70.6074 42.5195 72.0791 43.7549 72.0684 45.5273C72.0791 47.3105 70.6074 48.5352 68.5879 48.5352C66.5469 48.5352 65.0752 47.3105 65.0859 45.5273ZM76.3223 58.7832H77.998V39.6406H76.3223V58.7832ZM103.242 39.6406H101.609V47.2246H98.9453V40.0488H97.334V57.7734H98.9453V48.6211H101.609V58.7402H103.242V39.6406ZM87.5801 53.6055H94.8848V41.875H87.5801V53.6055ZM89.1699 52.252V43.2285H93.2949V52.252H89.1699ZM122.256 39.6406H120.623V47.2246H117.959V40.0488H116.348V57.7734H117.959V48.6211H120.623V58.7402H122.256V39.6406ZM106.594 53.6055H113.898V41.875H106.594V53.6055ZM108.184 52.252V43.2285H112.309V52.252H108.184ZM147.908 54.9375H139.916V50.5332H146.189V49.1797H143.203V42.9062H146.232V41.5098H131.967V42.9062H134.996V49.1797H132.01V50.5332H138.262V54.9375H130.42V56.377H147.908V54.9375ZM136.672 49.1797V42.9062H141.549V49.1797H136.672ZM165.203 39.6621H163.527V53.627H165.203V39.6621ZM149.885 45.6777C149.874 48.46 152.033 50.3936 154.891 50.3828C157.748 50.3936 159.886 48.46 159.896 45.6777C159.886 42.9277 157.748 41.0049 154.891 40.9941C152.033 41.0049 149.874 42.9277 149.885 45.6777ZM151.539 45.6777C151.518 43.8086 152.957 42.4766 154.891 42.4766C156.792 42.4766 158.242 43.8086 158.242 45.6777C158.242 47.5791 156.792 48.9004 154.891 48.9004C152.957 48.9004 151.518 47.5791 151.539 45.6777ZM152.871 58.332H165.805V56.9141H154.547V52.209H152.871V58.332ZM183.916 49.9746H172.422V46.9023H183.293V45.5488H172.422V42.7129H183.701V41.2949H170.703V51.3496H183.916V49.9746ZM168.447 56.248H185.936V54.8516H168.447V56.248ZM199.041 57.2148C202.146 57.2148 204.466 55.3242 204.455 52.7676C204.466 50.791 203.241 49.3408 201.211 49.0293V48.9219C202.844 48.46 203.875 47.1709 203.854 45.3984C203.875 43.1748 202.07 41.2305 199.105 41.2305C196.345 41.2305 194.046 42.8848 193.949 45.3555H195.818C195.904 43.8301 197.419 42.917 199.084 42.9062C200.856 42.917 201.995 43.9482 201.984 45.5059C201.995 47.1064 200.674 48.1699 198.783 48.1699H197.516V49.8672H198.783C201.2 49.8779 202.554 51.0703 202.564 52.7676C202.554 54.3896 201.071 55.4961 199.02 55.4961C197.161 55.4961 195.689 54.5723 195.582 53.0898H193.627C193.724 55.5605 195.947 57.2148 199.041 57.2148ZM221.342 39.6406H219.666V58.7402H221.342V48.8359H224.436V47.418H221.342V39.6406ZM206.689 53.7773L207.635 55.1094C213.854 52.0371 216.39 47.1064 216.4 41.7031H207.57V43.1211H214.692C214.306 47.6436 211.62 51.3281 206.689 53.7773ZM232.406 45.5059V43.0137H236.961V41.6172H226.197V43.0137H230.709V45.5059C230.698 48.8145 228.313 52.4238 225.574 53.7344L226.584 55.0664C228.765 53.9707 230.698 51.543 231.59 48.7393C232.481 51.3818 234.404 53.584 236.639 54.5938L237.584 53.2617C234.77 52.0479 232.417 48.75 232.406 45.5059ZM239.625 58.7402H241.322V39.6406H239.625V58.7402ZM262.055 48.5137H244.566V49.8457H262.055V48.5137ZM246.672 52.6387H258.188V54.2715H246.693V58.4824H260.486V57.2578H248.391V55.4316H259.863V51.3711H246.672V52.6387ZM246.779 41.4453H258.102V43.0137H246.844V47.0742H260.143V45.8496H248.52V44.1738H259.799V40.2207H246.779V41.4453ZM275.59 43.1855V42.3691H279.887V40.9941H269.574V42.3691H273.936V43.1855C273.914 45.9248 271.916 48.3848 269.059 49.3945L269.961 50.7051C272.206 49.8887 273.957 48.2021 274.773 46.0322C275.59 48.0088 277.255 49.5664 279.436 50.3398L280.295 49.0293C277.47 48.0518 275.601 45.7314 275.59 43.1855ZM271.551 53.541H282.379V58.7402H284.055V52.166H271.551V53.541ZM282.379 51.1562H284.055V46.1289H286.934V44.6895H284.055V39.6406H282.379V51.1562ZM294.711 42.6484V40.7363H293.035V42.7129C293.014 45.6777 291.059 48.2129 288.115 49.2441L289.039 50.6191C291.349 49.749 293.089 47.9766 293.905 45.6885C294.732 47.6973 296.387 49.2549 298.492 50.0391L299.438 48.7285C296.634 47.7725 294.689 45.377 294.711 42.6484ZM291.23 55.1309C291.22 57.4082 293.658 58.6973 297.633 58.6973C301.597 58.6973 304.035 57.4082 304.035 55.1309C304.035 52.832 301.597 51.5107 297.633 51.5215C293.658 51.5107 291.22 52.832 291.23 55.1309ZM292.906 55.1309C292.896 53.7021 294.7 52.8535 297.633 52.8535C300.555 52.8535 302.359 53.7021 302.359 55.1309C302.359 56.5166 300.555 57.3545 297.633 57.3438C294.7 57.3545 292.896 56.5166 292.906 55.1309ZM298.02 45.1406H302.273V50.9629H303.971V39.6406H302.273V43.7441H298.02V45.1406ZM321.932 39.6406H320.256V58.7402H321.932V48.9219H325.133V47.5254H321.932V39.6406ZM307.043 44.1094H318.408V42.7129H313.639V39.877H311.963V42.7129H307.043V44.1094ZM308.139 50.082C308.128 52.6709 310.104 54.4648 312.822 54.4648C315.519 54.4648 317.484 52.6709 317.506 50.082C317.484 47.5039 315.519 45.6992 312.822 45.6992C310.104 45.6992 308.128 47.5039 308.139 50.082ZM309.75 50.082C309.739 48.3525 311.039 47.1064 312.822 47.1172C314.584 47.1064 315.873 48.3525 315.895 50.082C315.873 51.8223 314.584 53.0469 312.822 53.0254C311.039 53.0469 309.739 51.8223 309.75 50.082ZM331.299 41.123C328.474 41.1338 326.497 43.7227 326.508 47.7832C326.497 51.8545 328.474 54.4326 331.299 54.4219C333.146 54.4326 334.629 53.3047 335.424 51.3711H340.322V58.7832H341.998V39.6406H340.322V43.916H335.306C334.479 42.1543 333.05 41.1338 331.299 41.123ZM328.119 47.7832C328.13 44.6787 329.419 42.6377 331.299 42.627C333.168 42.6377 334.479 44.6787 334.479 47.7832C334.479 50.8877 333.168 52.9287 331.299 52.918C329.419 52.9287 328.13 50.8877 328.119 47.7832ZM335.789 45.334H340.322V49.9746H335.854C335.993 49.3086 336.068 48.5674 336.068 47.7832C336.068 46.8916 335.972 46.0752 335.789 45.334ZM360.281 41.4238V40.3281H358.541V41.4238C358.541 44.1631 355.05 46.4404 351.602 46.9238L352.289 48.2988C355.265 47.8047 358.197 46.1826 359.422 43.8193C360.646 46.1611 363.59 47.8047 366.555 48.2988L367.242 46.9238C363.794 46.4404 360.292 44.1201 360.281 41.4238ZM350.699 51.8223H358.541V58.7402H360.195V51.8223H368.102V50.4043H350.699V51.8223ZM385.482 52.0371H372.635V53.4551H383.807V58.7402H385.482V52.0371ZM370.164 45.291C370.153 47.9766 372.27 49.8135 375.17 49.8242C378.07 49.8135 380.165 47.9766 380.176 45.291C380.165 42.6377 378.07 40.79 375.17 40.8008C372.27 40.79 370.153 42.6377 370.164 45.291ZM371.818 45.291C371.797 43.4971 373.204 42.251 375.17 42.2402C377.114 42.251 378.521 43.4971 378.521 45.291C378.521 47.1279 377.114 48.3848 375.17 48.3633C373.204 48.3848 371.797 47.1279 371.818 45.291ZM383.807 51.0059H385.482V39.6406H383.807V51.0059ZM403.637 39.6621H401.939V51.8652H403.637V46.4512H406.494V45.0117H403.637V39.6621ZM388.705 49.2012L388.92 50.5547C392.239 50.5547 396.794 50.501 400.844 49.8027L400.715 48.5781C399.05 48.8252 397.234 48.9648 395.451 49.0615V47.332C397.761 47.0635 399.286 45.7529 399.297 43.8516C399.286 41.7568 397.353 40.3818 394.549 40.3711C391.724 40.3818 389.812 41.7568 389.822 43.8516C389.812 45.7852 391.369 47.1064 393.754 47.3428V49.126C391.938 49.1904 390.198 49.2012 388.705 49.2012ZM391.197 55.3672C391.187 57.4727 393.561 58.6973 397.471 58.6973C401.381 58.6973 403.755 57.4727 403.766 55.3672C403.755 53.251 401.381 52.0479 397.471 52.0371C393.561 52.0479 391.187 53.251 391.197 55.3672ZM391.412 43.8516C391.391 42.541 392.658 41.6709 394.549 41.6602C396.418 41.6709 397.696 42.541 397.707 43.8516C397.696 45.2051 396.418 46.1182 394.549 46.1289C392.658 46.1182 391.391 45.2051 391.412 43.8516ZM392.852 55.3672C392.83 54.0996 394.592 53.3584 397.471 53.3477C400.317 53.3584 402.079 54.0996 402.09 55.3672C402.079 56.624 400.317 57.3652 397.471 57.3652C394.592 57.3652 392.83 56.624 392.852 55.3672ZM424.111 39.6406H422.479V58.7402H424.111V39.6406ZM407.977 47.8906C407.987 51.9512 409.599 54.54 412.08 54.5293C414.433 54.54 416.033 52.209 416.194 48.4922H418.654V57.7734H420.266V40.0488H418.654V47.0957H416.184C415.969 43.4971 414.4 41.2627 412.08 41.252C409.599 41.2627 407.987 43.8301 407.977 47.8906ZM409.566 47.8906C409.545 44.7861 410.533 42.8418 412.08 42.8418C413.638 42.8418 414.626 44.7861 414.615 47.8906C414.626 50.9844 413.638 52.9395 412.08 52.918C410.533 52.9395 409.545 50.9844 409.566 47.8906ZM447.701 48.5996H436.207V42.584H447.508V41.209H434.51V49.9746H440.139V54.916H432.275V56.334H449.764V54.916H441.793V49.9746H447.701V48.5996ZM467.123 39.6621H465.426V44.9473H461.494V46.3438H465.426V53.6699H467.123V39.6621ZM451.375 49.8457L452.256 51.2207C454.522 50.3721 456.284 48.6211 457.111 46.4082C457.938 48.3848 459.604 49.9854 461.752 50.7695L462.633 49.416C459.84 48.46 457.928 46.0645 457.928 43.5938V42.6055H462.203V41.209H451.912V42.6055H456.23V43.5938C456.23 46.333 454.189 48.8574 451.375 49.8457ZM454.855 58.332H467.66V56.9141H456.553V52.4023H454.855V58.332ZM485.084 39.6406H483.408V58.7402H485.084V48.9219H488.285V47.5254H485.084V39.6406ZM470.195 44.1094H481.561V42.7129H476.791V39.877H475.115V42.7129H470.195V44.1094ZM471.291 50.082C471.28 52.6709 473.257 54.4648 475.975 54.4648C478.671 54.4648 480.637 52.6709 480.658 50.082C480.637 47.5039 478.671 45.6992 475.975 45.6992C473.257 45.6992 471.28 47.5039 471.291 50.082ZM472.902 50.082C472.892 48.3525 474.191 47.1064 475.975 47.1172C477.736 47.1064 479.025 48.3525 479.047 50.082C479.025 51.8223 477.736 53.0469 475.975 53.0254C474.191 53.0469 472.892 51.8223 472.902 50.082ZM494.988 45.0762V41.4453H493.355V45.1406C493.355 48.417 491.744 51.8008 489.102 53.3477L490.176 54.6152C492.088 53.4551 493.506 51.2637 494.204 48.7178C494.87 51.0488 496.191 53.0898 498.039 54.207L499.006 52.8965C496.471 51.3926 494.988 48.1162 494.988 45.0762ZM496.9 47.9336H500.145V57.7734H501.734V40.0488H500.145V46.4941H496.9V47.9336ZM504.055 58.7402H505.688V39.6406H504.055V58.7402ZM525.818 54.873H521.479V49.6738C523.058 48.8252 524.014 47.4717 524.014 45.7637C524.014 42.8096 521.113 40.8652 517.031 40.8438C512.949 40.8652 510.049 42.8096 510.049 45.7637C510.049 47.5039 511.037 48.8789 512.67 49.7275V54.873H508.33V56.291H525.818V54.873ZM511.682 45.7637C511.671 43.626 513.895 42.2188 517.031 42.2402C520.136 42.2188 522.381 43.626 522.381 45.7637C522.381 47.9014 520.136 49.3301 517.031 49.3301C513.895 49.3301 511.671 47.9014 511.682 45.7637ZM514.324 54.873V50.3398C515.141 50.5547 516.054 50.6621 517.031 50.6621C518.03 50.6621 518.954 50.5439 519.781 50.3291V54.873H514.324ZM529.363 57.1289C530.126 57.1182 530.749 56.4951 530.738 55.7324C530.749 54.9805 530.126 54.3574 529.363 54.3574C528.611 54.3574 527.967 54.9805 527.988 55.7324C527.967 56.4951 528.611 57.1182 529.363 57.1289ZM15.5859 67.6406H13.9102V71.8945H9.91406C9.53809 69.7461 7.59375 68.3174 5.03711 68.3281C2.1582 68.3174 0.0634766 70.0791 0.0742188 72.625C0.0634766 75.2031 2.1582 76.9971 5.03711 76.9863C7.61523 76.9971 9.57031 75.5146 9.9248 73.3125H13.9102V77.373H15.5859V67.6406ZM1.68555 72.625C1.68555 70.9277 3.08203 69.7031 5.03711 69.7246C6.92773 69.7031 8.3457 70.9277 8.3457 72.625C8.3457 74.3652 6.92773 75.6006 5.03711 75.5898C3.08203 75.6006 1.68555 74.3652 1.68555 72.625ZM3.21094 79.7793H13.9102V81.7129H3.25391V86.4824H16.3164V85.1289H4.92969V83.002H15.5859V78.4258H3.21094V79.7793ZM28.3906 69.5742H19.582V81.8848H28.3906V69.5742ZM21.2148 80.5098V70.9277H26.7148V80.5098H21.2148ZM31.8926 86.7402H33.5684V76.7285H36.7695V75.2676H33.5684V67.6406H31.8926V86.7402ZM55.6758 75.2676H52.582V67.6406H50.9062V86.7402H52.582V76.6855H55.6758V75.2676ZM38.5957 81.8848H40.1211C43.0107 81.8848 45.9756 81.6914 49.2734 81.0254L49.0586 79.5859C45.9111 80.252 43.0645 80.4668 40.2715 80.4668V69.5312H38.5957V81.8848ZM71.918 69.4238V68.3281H70.1777V69.4238C70.1777 72.1631 66.6865 74.4404 63.2383 74.9238L63.9258 76.2988C66.9014 75.8047 69.834 74.1826 71.0586 71.8193C72.2832 74.1611 75.2266 75.8047 78.1914 76.2988L78.8789 74.9238C75.4307 74.4404 71.9287 72.1201 71.918 69.4238ZM62.3359 79.8223H70.1777V86.7402H71.832V79.8223H79.7383V78.4043H62.3359V79.8223ZM97.1191 80.0371H84.2715V81.4551H95.4434V86.7402H97.1191V80.0371ZM81.8008 73.291C81.79 75.9766 83.9062 77.8135 86.8066 77.8242C89.707 77.8135 91.8018 75.9766 91.8125 73.291C91.8018 70.6377 89.707 68.79 86.8066 68.8008C83.9062 68.79 81.79 70.6377 81.8008 73.291ZM83.4551 73.291C83.4336 71.4971 84.8408 70.251 86.8066 70.2402C88.751 70.251 90.1582 71.4971 90.1582 73.291C90.1582 75.1279 88.751 76.3848 86.8066 76.3633C84.8408 76.3848 83.4336 75.1279 83.4551 73.291ZM95.4434 79.0059H97.1191V67.6406H95.4434V79.0059ZM117.83 76.3633H100.342V77.6738H105.09V79.4141H102.447V80.6602H113.963V82.293H102.469V86.5254H116.262V85.3008H104.166V83.4746H115.639V79.4141H113.104V77.6738H117.83V76.3633ZM102.555 69.4238H113.877V71.0137H102.619V75.0098H115.918V73.7852H104.295V72.1523H115.574V68.2207H102.555V69.4238ZM106.744 79.4141V77.6738H111.428V79.4141H106.744ZM135.125 67.6406H133.428V86.7832H135.125V67.6406ZM120.086 75.7832C120.097 79.8545 122.116 82.4326 124.963 82.4219C127.799 82.4326 129.851 79.8545 129.84 75.7832C129.851 71.7227 127.799 69.1338 124.963 69.123C122.116 69.1338 120.097 71.7227 120.086 75.7832ZM121.719 75.7832C121.719 72.6787 123.051 70.6377 124.963 70.627C126.886 70.6377 128.207 72.6787 128.207 75.7832C128.207 78.8877 126.886 80.9287 124.963 80.918C123.051 80.9287 121.719 78.8877 121.719 75.7832ZM152.613 67.877C148.349 67.877 145.846 69.0586 145.846 71.1855C145.846 73.1836 148.016 74.333 151.754 74.4941V75.9551H143.912V77.3301H161.314V75.9551H153.408V74.4941C157.168 74.3545 159.349 73.1943 159.359 71.1855C159.349 69.0586 156.856 67.877 152.613 67.877ZM146.018 80.252H157.426V81.9707H146.061V86.5254H159.66V85.1934H147.736V83.2168H159.08V78.9414H146.018V80.252ZM147.607 71.1855C147.586 69.9287 149.444 69.1875 152.613 69.166C155.782 69.1875 157.63 69.9287 157.641 71.1855C157.63 72.4961 155.782 73.2051 152.613 73.2266C149.444 73.2051 147.586 72.4961 147.607 71.1855ZM177.857 67.6621H176.182V78.8555H177.857V73.7852H180.758V72.3672H177.857V67.6621ZM163.699 85.2363L164.559 86.5254C166.363 85.8271 167.685 84.4844 168.372 82.9375C168.941 84.5381 170.112 85.9561 171.949 86.6758C173.743 85.9346 174.914 84.4414 175.505 82.873C176.16 84.4844 177.492 85.8164 179.383 86.5254L180.242 85.2363C177.771 84.4092 176.343 82.4326 176.354 80.4453V79.543H174.699V80.4453C174.688 81.917 173.754 83.8506 171.917 85C170.102 83.958 169.188 82.1533 169.199 80.4453V79.543H167.588V80.4453C167.588 82.293 166.105 84.3662 163.699 85.2363ZM163.742 70.0254H170.746V72.4746H163.785V77.8242H165.268C169.253 77.8242 171.605 77.7275 174.441 77.2227L174.27 75.8047C171.552 76.3096 169.253 76.4492 165.439 76.4277V73.8066H172.4V68.6289H163.742V70.0254ZM197.387 73.4414H185.979V68.3496H184.303V74.7949H197.387V73.4414ZM181.918 78.7695H199.406V77.3945H181.918V78.7695ZM184.195 86.2676H197.494V84.8711H185.871V80.7246H184.195V86.2676ZM207.785 73.5059V71.0137H212.34V69.6172H201.576V71.0137H206.088V73.5059C206.077 76.8145 203.692 80.4238 200.953 81.7344L201.963 83.0664C204.144 81.9707 206.077 79.543 206.969 76.7393C207.86 79.3818 209.783 81.584 212.018 82.5938L212.963 81.2617C210.148 80.0479 207.796 76.75 207.785 73.5059ZM215.004 86.7402H216.701V67.6406H215.004V86.7402ZM241.236 67.6406H239.539V86.7832H241.236V67.6406ZM226.605 82.1641H235.629V69.2734H233.975V74.3223H228.281V69.2734H226.605V82.1641ZM228.281 80.7461V75.6758H233.975V80.7461H228.281ZM259.842 69.5742H246.328V70.9707H258.188V71.7012C258.177 74.0859 258.177 76.5996 257.5 79.9727L259.154 80.166C259.831 76.6104 259.831 74.1504 259.842 71.7012V69.5742ZM244.502 84.0332H261.904V82.6367H255.244V76.3418H253.59V82.6367H250.496V76.3418H248.82V82.6367H244.502V84.0332ZM278.447 67.5762H276.771V78.1465H278.447V73.6133H281.348V72.2168H278.447V67.5762ZM263.559 70.7344H274.945V69.3809H270.09V67.4473H268.414V69.3809H263.559V70.7344ZM264.654 74.7305C264.644 76.6748 266.47 77.8564 269.252 77.8672C272.023 77.8564 273.828 76.6748 273.85 74.7305C273.828 72.7969 272.023 71.6045 269.252 71.5938C266.47 71.6045 264.644 72.7969 264.654 74.7305ZM266.266 80.4023H276.771V82.1211H266.309V86.5254H279.156V85.2363H267.963V83.3672H278.447V79.1348H266.266V80.4023ZM266.266 74.7305C266.255 73.5918 267.437 72.8506 269.252 72.8398C271.057 72.8506 272.238 73.5918 272.26 74.7305C272.238 75.8799 271.057 76.5996 269.252 76.5996C267.437 76.5996 266.255 75.8799 266.266 74.7305ZM297.633 69.4238V68.3281H295.893V69.4238C295.893 72.1631 292.401 74.4404 288.953 74.9238L289.641 76.2988C292.616 75.8047 295.549 74.1826 296.773 71.8193C297.998 74.1611 300.941 75.8047 303.906 76.2988L304.594 74.9238C301.146 74.4404 297.644 72.1201 297.633 69.4238ZM288.051 79.8223H295.893V86.7402H297.547V79.8223H305.453V78.4043H288.051V79.8223ZM319.053 80.4668V79.4141H317.42V80.4668C317.398 82.293 315.948 84.334 313.531 85.2363L314.391 86.4824C316.217 85.7949 317.527 84.4629 318.215 82.9268C318.784 84.5273 319.966 85.9238 321.824 86.6328C323.586 85.8916 324.757 84.4199 325.348 82.873C326.014 84.4736 327.346 85.8057 329.258 86.4824L330.096 85.2363C327.646 84.3877 326.196 82.4326 326.207 80.4668V79.4141H324.553V80.4668C324.563 81.9385 323.597 83.8506 321.771 84.9785C319.955 83.9473 319.042 82.1533 319.053 80.4668ZM313.037 73.248C313.026 75.8691 315.143 77.6738 318.043 77.6738C320.943 77.6738 323.038 75.8691 323.049 73.248C323.038 70.584 320.943 68.7686 318.043 68.7793C315.143 68.7686 313.026 70.584 313.037 73.248ZM314.691 73.248C314.67 71.4648 316.077 70.1973 318.043 70.2188C319.987 70.1973 321.395 71.4648 321.395 73.248C321.395 75.0205 319.987 76.2666 318.043 76.2773C316.077 76.2666 314.67 75.0205 314.691 73.248ZM326.68 78.5762H328.355V67.6621H326.68V78.5762ZM336.734 69.123C333.909 69.1338 331.933 71.7227 331.943 75.7832C331.933 79.8545 333.909 82.4326 336.734 82.4219C339.398 82.4326 341.311 80.0908 341.493 76.3418H345.758V86.7832H347.434V67.6406H345.758V74.9453H341.472C341.214 71.3682 339.334 69.1338 336.734 69.123ZM333.555 75.7832C333.565 72.6787 334.854 70.6377 336.734 70.627C338.604 70.6377 339.914 72.6787 339.914 75.7832C339.914 78.8877 338.604 80.9287 336.734 80.918C334.854 80.9287 333.565 78.8877 333.555 75.7832ZM368.102 82.873H363.762V77.6738C365.341 76.8252 366.297 75.4717 366.297 73.7637C366.297 70.8096 363.396 68.8652 359.314 68.8438C355.232 68.8652 352.332 70.8096 352.332 73.7637C352.332 75.5039 353.32 76.8789 354.953 77.7275V82.873H350.613V84.291H368.102V82.873ZM353.965 73.7637C353.954 71.626 356.178 70.2188 359.314 70.2402C362.419 70.2188 364.664 71.626 364.664 73.7637C364.664 75.9014 362.419 77.3301 359.314 77.3301C356.178 77.3301 353.954 75.9014 353.965 73.7637ZM356.607 82.873V78.3398C357.424 78.5547 358.337 78.6621 359.314 78.6621C360.313 78.6621 361.237 78.5439 362.064 78.3291V82.873H356.607ZM371.646 85.1289C372.409 85.1182 373.032 84.4951 373.021 83.7324C373.032 82.9805 372.409 82.3574 371.646 82.3574C370.895 82.3574 370.25 82.9805 370.271 83.7324C370.25 84.4951 370.895 85.1182 371.646 85.1289Z" fill="white"/>
<defs>
<clipPath id="clip0_372_691">
<rect width="308" height="124" fill="white" transform="translate(840)"/>
</clipPath>
</defs>
</svg>
