<svg width="308" height="124" viewBox="0 0 308 124" fill="none" xmlns="http://www.w3.org/2000/svg">
<g clip-path="url(#clip0_371_2563)">
<path d="M29.6778 107.347L29.1926 106.785C33.2974 103.292 38.4061 98.9463 40.3183 93.202C42.2032 87.5393 40.7853 80.7029 36.6178 75.3605C33.0711 70.8138 27.5945 67.2335 20.7802 65.0065C19.4362 64.5672 18.0406 64.177 16.691 63.7995C13.4288 62.8874 10.0555 61.944 7.06816 60.2201C2.95361 57.8455 -0.78365 53.1814 0.142449 48.1143C0.45684 46.493 1.22287 44.9916 2.35356 43.7807C3.48425 42.5698 4.9343 41.6979 6.53907 41.2639L6.73742 41.9776C5.26721 42.3749 3.93862 43.1734 2.90243 44.2824C1.86623 45.3914 1.16392 46.7665 0.875194 48.2517C0.0146162 52.9605 3.55354 57.3354 7.44297 59.5802C10.3486 61.2569 13.6757 62.1873 16.8932 63.087C18.2504 63.4665 19.654 63.8591 21.0135 64.3034C27.9696 66.5768 33.5693 70.2434 37.2073 74.9072C41.5247 80.4416 42.9881 87.5408 41.0263 93.4343C39.049 99.3742 33.853 103.795 29.6778 107.347Z" fill="#F1F1F1"/>
<path d="M11.9886 44.0868C15.5109 43.3313 18.0667 41.342 17.697 39.6436C17.3274 37.9452 14.1723 37.1809 10.65 37.9363C7.12764 38.6918 4.57187 40.6811 4.94151 42.3795C5.31115 44.0779 8.46622 44.8423 11.9886 44.0868Z" fill="#F1F1F1"/>
<path d="M21.5003 63.2527C25.0226 62.4972 27.5784 60.5079 27.2087 58.8095C26.8391 57.1111 23.684 56.3467 20.1617 57.1022C16.6394 57.8577 14.0836 59.847 14.4532 61.5454C14.8229 63.2438 17.9779 64.0081 21.5003 63.2527Z" fill="#F1F1F1"/>
<path d="M10.5469 69.0101C14.0693 68.2546 16.625 66.2654 16.2554 64.567C15.8857 62.8686 12.7307 62.1042 9.20833 62.8597C5.68599 63.6152 3.13022 65.6044 3.49986 67.3028C3.8695 69.0012 7.02457 69.7656 10.5469 69.0101Z" fill="#F1F1F1"/>
<path d="M102.246 65.9601H101.5V68.1809H102.246V65.9601Z" fill="#E5E5E5"/>
<path d="M102.246 115.499H101.5V110.767H102.246V115.499ZM102.246 106.036H101.5V101.304H102.246V106.036ZM102.246 96.5718H101.5V91.8401H102.246V96.5718ZM102.246 87.1082H101.5V82.3763H102.246V87.1082ZM102.246 77.6446H101.5V72.9127H102.246V77.6446Z" fill="#E5E5E5"/>
<path d="M102.246 120.231H101.5V122.452H102.246V120.231Z" fill="#E5E5E5"/>
<path d="M183.9 65.9601H183.155V68.1809H183.9V65.9601Z" fill="#E5E5E5"/>
<path d="M183.9 115.499H183.155V110.768H183.9V115.499ZM183.9 106.036H183.155V101.304H183.9V106.036ZM183.9 96.572H183.155V91.8402H183.9V96.572ZM183.9 87.1083H183.155V82.3764H183.9V87.1083ZM183.9 77.6447H183.155V72.9128H183.9V77.6447Z" fill="#E5E5E5"/>
<path d="M183.9 120.231H183.155V122.452H183.9V120.231Z" fill="#E5E5E5"/>
<path d="M225.089 22.5148H224.344V24.7356H225.089V22.5148Z" fill="#E5E5E5"/>
<path d="M225.089 115.684H224.344V111.136H225.089V115.684ZM225.089 106.589H224.344V102.041H225.089V106.589ZM225.089 97.4941H224.344V92.9467H225.089V97.4941ZM225.089 88.3993H224.344V83.8519H225.089V88.3993ZM225.089 79.3046H224.344V74.757H225.089V79.3046ZM225.089 70.2096H224.344V65.6622H225.089V70.2096ZM225.089 61.1148H224.344V56.5675H225.089V61.1148ZM225.089 52.0201H224.344V47.4727H225.089V52.0201ZM225.089 42.9251H224.344V38.3777H225.089V42.9251ZM225.089 33.8303H224.344V29.283H225.089V33.8303Z" fill="#E5E5E5"/>
<path d="M225.089 120.231H224.344V122.452H225.089V120.231Z" fill="#E5E5E5"/>
<path d="M265.868 4.74811H265.122V6.96894H265.868V4.74811Z" fill="#E5E5E5"/>
<path d="M265.868 115.701H265.122V111.17H265.868V115.701ZM265.868 106.64H265.122V102.109H265.868V106.64ZM265.868 97.5788H265.122V93.0483H265.868V97.5788ZM265.868 88.5179H265.122V83.9873H265.868V88.5179ZM265.868 79.4569H265.122V74.9263H265.868V79.4569ZM265.868 70.3959H265.122V65.8654H265.868V70.3959ZM265.868 61.3349H265.122V56.8044H265.868V61.3349ZM265.868 52.2739H265.122V47.7434H265.868V52.2739ZM265.868 43.213H265.122V38.6824H265.868V43.213ZM265.868 34.152H265.122V29.6215H265.868V34.152ZM265.868 25.091H265.122V20.5605H265.868V25.091ZM265.868 16.03H265.122V11.4995H265.868V16.03Z" fill="#E5E5E5"/>
<path d="M265.868 120.231H265.122V122.452H265.868V120.231Z" fill="#E5E5E5"/>
<path d="M143.26 36.2098H142.514V38.4307H143.26V36.2098Z" fill="#E5E5E5"/>
<path d="M143.26 115.926H142.514V111.621H143.26V115.926ZM143.26 107.315H142.514V103.01H143.26V107.315ZM143.26 98.7048H142.514V94.3996H143.26V98.7048ZM143.26 90.0942H142.514V85.789H143.26V90.0942ZM143.26 81.4837H142.514V77.1785H143.26V81.4837ZM143.26 72.8731H142.514V68.5679H143.26V72.8731ZM143.26 64.2625H142.514V59.9573H143.26V64.2625ZM143.26 55.6519H142.514V51.3467H143.26V55.6519ZM143.26 47.0413H142.514V42.7361H143.26V47.0413Z" fill="#E5E5E5"/>
<path d="M143.26 120.231H142.514V122.452H143.26V120.231Z" fill="#E5E5E5"/>
<path d="M307.227 123.483H60.3539C60.149 123.483 59.9525 123.402 59.8076 123.259C59.6627 123.115 59.5813 122.92 59.5813 122.716V5.25125C59.5817 5.04812 59.6633 4.85347 59.8082 4.71C59.953 4.56653 60.1493 4.48596 60.3539 4.48596C60.5585 4.48596 60.7548 4.56653 60.8996 4.71C61.0444 4.85347 61.126 5.04812 61.1265 5.25125V121.949H307.227C307.329 121.949 307.43 121.969 307.524 122.007C307.618 122.046 307.703 122.102 307.775 122.173C307.847 122.245 307.904 122.329 307.943 122.422C307.982 122.516 308.002 122.615 308.002 122.716C308.002 122.817 307.982 122.917 307.943 123.01C307.904 123.103 307.847 123.188 307.775 123.259C307.703 123.33 307.618 123.387 307.524 123.425C307.43 123.464 307.329 123.483 307.227 123.483Z" fill="#3F3D56"/>
<path d="M183.866 66.9909L142.821 36.4712L102.336 66.5738L101.41 65.346L142.821 34.5542L183.671 64.9289L224.265 20.8291L224.428 20.7636L265.376 4.38538L265.953 5.80856L225.168 22.1213L183.866 66.9909Z" fill="#3F3D56"/>
<path d="M101.873 70.5618C104.433 70.5618 106.509 68.5015 106.509 65.96C106.509 63.4185 104.433 61.3581 101.873 61.3581C99.3127 61.3581 97.2373 63.4185 97.2373 65.96C97.2373 68.5015 99.3127 70.5618 101.873 70.5618Z" fill="#63FF9C"/>
<path d="M142.821 40.6498C145.381 40.6498 147.457 38.5894 147.457 36.0479C147.457 33.5064 145.381 31.446 142.821 31.446C140.261 31.446 138.185 33.5064 138.185 36.0479C138.185 38.5894 140.261 40.6498 142.821 40.6498Z" fill="#63FF9C"/>
<path d="M183.769 70.5618C186.329 70.5618 188.404 68.5015 188.404 65.96C188.404 63.4185 186.329 61.3581 183.769 61.3581C181.208 61.3581 179.133 63.4185 179.133 65.96C179.133 68.5015 181.208 70.5618 183.769 70.5618Z" fill="#E5E5E5"/>
<path d="M182.65 86.8479C185.21 86.8479 187.286 84.7876 187.286 82.2461C187.286 79.7045 185.21 77.6442 182.65 77.6442C180.09 77.6442 178.015 79.7045 178.015 82.2461C178.015 84.7876 180.09 86.8479 182.65 86.8479Z" fill="#63FF9C"/>
<path d="M224.717 26.0772C227.277 26.0772 229.352 24.0169 229.352 21.4753C229.352 18.9338 227.277 16.8735 224.717 16.8735C222.157 16.8735 220.081 18.9338 220.081 21.4753C220.081 24.0169 222.157 26.0772 224.717 26.0772Z" fill="#63FF9C"/>
<path d="M265.664 9.20372C268.225 9.20372 270.3 7.1434 270.3 4.60186C270.3 2.06032 268.225 0 265.664 0C263.104 0 261.029 2.06032 261.029 4.60186C261.029 7.1434 263.104 9.20372 265.664 9.20372Z" fill="#63FF9C"/>
<path d="M59.0685 90.0542C60.6516 85.9424 60.8809 82.2091 59.5806 81.7157C58.2804 81.2223 55.9429 84.1557 54.3597 88.2675C52.7766 92.3793 52.5473 96.1126 53.8476 96.606C55.1479 97.0994 57.4853 94.166 59.0685 90.0542Z" fill="#2F2E41"/>
<path d="M41.8717 117.139C50.7402 117.139 57.9295 110.002 57.9295 101.199C57.9295 92.3946 50.7402 85.2577 41.8717 85.2577C33.0033 85.2577 25.814 92.3946 25.814 101.199C25.814 110.002 33.0033 117.139 41.8717 117.139Z" fill="#2F2E41"/>
<path d="M39.4325 113.709H34.5542V122.386H39.4325V113.709Z" fill="#2F2E41"/>
<path d="M49.1893 113.709H44.311V122.386H49.1893V113.709Z" fill="#2F2E41"/>
<path d="M38.6195 124C40.8646 124 42.6847 123.322 42.6847 122.487C42.6847 121.651 40.8646 120.973 38.6195 120.973C36.3743 120.973 34.5542 121.651 34.5542 122.487C34.5542 123.322 36.3743 124 38.6195 124Z" fill="#2F2E41"/>
<path d="M48.3763 123.798C50.6215 123.798 52.4416 123.121 52.4416 122.285C52.4416 121.449 50.6215 120.771 48.3763 120.771C46.1311 120.771 44.311 121.449 44.311 122.285C44.311 123.121 46.1311 123.798 48.3763 123.798Z" fill="#2F2E41"/>
<path d="M42.2784 102.611C45.3094 102.611 47.7665 100.172 47.7665 97.1628C47.7665 94.1539 45.3094 91.7147 42.2784 91.7147C39.2474 91.7147 36.7903 94.1539 36.7903 97.1628C36.7903 100.172 39.2474 102.611 42.2784 102.611Z" fill="white"/>
<path d="M42.2783 98.9789C43.2887 98.9789 44.1077 98.1658 44.1077 97.1629C44.1077 96.1599 43.2887 95.3468 42.2783 95.3468C41.268 95.3468 40.449 96.1599 40.449 97.1629C40.449 98.1658 41.268 98.9789 42.2783 98.9789Z" fill="#3F3D56"/>
<path d="M26.295 86.3743C24.9984 80.6098 29.1431 74.7851 35.5524 73.3643C41.9617 71.9436 48.2086 75.4649 49.5052 81.2294C50.8018 86.9938 46.5541 89.1198 40.1448 90.5406C33.7355 91.9613 27.5916 92.1388 26.295 86.3743Z" fill="#E6E6E6"/>
<path d="M31.0397 97.2175C31.6362 95.9689 28.8719 93.4275 24.8655 91.5411C20.859 89.6547 17.1276 89.1377 16.531 90.3863C15.9345 91.6349 18.6988 94.1763 22.7053 96.0627C26.7117 97.949 30.4432 98.466 31.0397 97.2175Z" fill="#2F2E41"/>
<path d="M33.9844 106.949C33.9844 108.51 38.031 111.59 42.5214 111.59C47.0118 111.59 51.222 107.198 51.222 105.638C51.222 104.078 47.0118 105.94 42.5214 105.94C38.0311 105.94 33.9844 105.389 33.9844 106.949Z" fill="white"/>
<path d="M163.097 114.603C171.966 114.603 179.155 107.466 179.155 98.6617C179.155 89.8578 171.966 82.7209 163.097 82.7209C154.229 82.7209 147.039 89.8578 147.039 98.6617C147.039 107.466 154.229 114.603 163.097 114.603Z" fill="#2F2E41"/>
<path d="M160.658 111.172H155.78V119.849H160.658V111.172Z" fill="#2F2E41"/>
<path d="M170.415 111.172H165.536V119.849H170.415V111.172Z" fill="#2F2E41"/>
<path d="M163.176 122.723C163.523 121.962 162.146 120.6 160.1 119.681C158.055 118.763 156.115 118.636 155.768 119.397C155.421 120.159 156.798 121.521 158.844 122.439C160.89 123.358 162.829 123.485 163.176 122.723Z" fill="#2F2E41"/>
<path d="M172.513 122.251C172.881 121.499 171.541 120.1 169.522 119.127C167.502 118.153 165.567 117.974 165.199 118.726C164.831 119.478 166.17 120.876 168.19 121.85C170.21 122.823 172.145 123.003 172.513 122.251Z" fill="#2F2E41"/>
<path d="M147.521 83.8372C146.224 78.0728 150.369 72.248 156.778 70.8273C163.187 69.4066 169.434 72.9279 170.731 78.6923C172.027 84.4568 167.78 86.5828 161.37 88.0035C154.961 89.4242 148.817 89.6017 147.521 83.8372Z" fill="#63FF9C"/>
<path d="M180.401 91.6959C183.879 88.2409 185.812 84.5616 184.719 83.4778C183.627 82.394 179.922 84.3163 176.444 87.7712C172.967 91.2261 171.033 94.9055 172.126 95.9892C173.219 97.073 176.923 95.1508 180.401 91.6959Z" fill="#2F2E41"/>
<path d="M149.916 105.251C151.178 100.531 150.991 96.3848 149.498 95.9915C148.005 95.5982 145.772 99.1062 144.51 103.827C143.248 108.548 143.435 112.693 144.928 113.087C146.421 113.48 148.654 109.972 149.916 105.251Z" fill="#2F2E41"/>
</g>
<defs>
<clipPath id="clip0_371_2563">
<rect width="308" height="124" fill="white"/>
</clipPath>
</defs>
</svg>
