<svg width="current" height="current" viewBox="0 0 16 14" fill="none" xmlns="http://www.w3.org/2000/svg">
<path d="M10 0H4.00002C3.44669 0 2.97335 0.333333 2.77335 0.813333L0.76002 5.51333C0.70002 5.66667 0.666687 5.82667 0.666687 6V7.33333C0.666687 8.06667 1.26669 8.66667 2.00002 8.66667H6.20669L5.57335 11.7133L5.55335 11.9267C5.55335 12.2 5.66669 12.4533 5.84669 12.6333L6.55335 13.3333L10.9467 8.94C11.1867 8.7 11.3334 8.36667 11.3334 8V1.33333C11.3334 0.6 10.7334 0 10 0ZM10 8L7.10669 10.8933L8.00002 7.33333H2.00002V6L4.00002 1.33333H10V8ZM12.6667 0H15.3334V8H12.6667V0Z" fill="black"/>
</svg>
