<svg width="current" height="current" viewBox="0 0 31 31" fill="none" xmlns="http://www.w3.org/2000/svg">
<path d="M7.49023 11.1311H14.7717" stroke="white" stroke-width="1.45628" stroke-linecap="round"/>
<path d="M11.1309 7.49048L11.1309 14.7719" stroke="white" stroke-width="1.45628" stroke-linecap="round"/>
<path d="M21.4792 18.9167H20.1296L19.6513 18.4554C21.3254 16.5079 22.3333 13.9796 22.3333 11.2292C22.3333 5.09625 17.3621 0.125 11.2292 0.125C5.09625 0.125 0.125 5.09625 0.125 11.2292C0.125 17.3621 5.09625 22.3333 11.2292 22.3333C13.9796 22.3333 16.5079 21.3254 18.4554 19.6513L18.9167 20.1296V21.4792L27.4583 30.0038L30.0038 27.4583L21.4792 18.9167V18.9167ZM11.2292 18.9167C6.97542 18.9167 3.54167 15.4829 3.54167 11.2292C3.54167 6.97542 6.97542 3.54167 11.2292 3.54167C15.4829 3.54167 18.9167 6.97542 18.9167 11.2292C18.9167 15.4829 15.4829 18.9167 11.2292 18.9167Z" fill="white"/>
</svg>
 