<svg width="17" height="17" viewBox="0 0 17 17" fill="none" xmlns="http://www.w3.org/2000/svg">
<g clip-path="url(#clip0_349_1849)">
<path d="M8.48497 13.4996C12.2128 13.4996 15.2348 10.4776 15.2348 6.7498C15.2348 3.02199 12.2128 0 8.48497 0C4.75716 0 1.73517 3.02199 1.73517 6.7498C1.73517 10.4776 4.75716 13.4996 8.48497 13.4996Z" fill="#FFD600"/>
<path d="M3.01684 10.6986L0.694397 14.7244L3.40503 14.5805L4.63652 17L6.78495 13.2754C5.24558 12.8772 3.92373 11.9502 3.01684 10.6986Z" fill="#D80404"/>
<path d="M13.9664 10.6785C13.0662 11.9334 11.7444 12.8638 10.2084 13.2687L12.3635 17L13.595 14.5805L16.3056 14.7244L13.9664 10.6785Z" fill="#D80404"/>
<path d="M8.48493 11.6423C11.187 11.6423 13.3774 9.45185 13.3774 6.74979C13.3774 4.04772 11.187 1.85727 8.48493 1.85727C5.78286 1.85727 3.59241 4.04772 3.59241 6.74979C3.59241 9.45185 5.78286 11.6423 8.48493 11.6423Z" fill="#FFE70D"/>
<path d="M11.8381 6.22105C11.9887 6.07381 11.905 5.81613 11.6976 5.78601L9.76666 5.50491C9.683 5.49152 9.61273 5.44133 9.57591 5.36436L8.71253 3.61416C8.61883 3.42341 8.34777 3.42341 8.25406 3.61416L7.39403 5.36436C7.35721 5.43798 7.28359 5.49152 7.20328 5.50491L5.27237 5.78601C5.06489 5.81613 4.98123 6.07381 5.13182 6.22105L6.52729 7.58306C6.58753 7.6433 6.6143 7.72696 6.60092 7.80727L6.27296 9.72814C6.23615 9.93562 6.45702 10.0962 6.64442 9.99585L8.37119 9.08896C8.44481 9.04881 8.53517 9.04881 8.60879 9.08896L10.3356 9.99585C10.523 10.0929 10.7405 9.93562 10.707 9.72814L10.3757 7.80727C10.3623 7.72361 10.3891 7.63995 10.4493 7.58306L11.8381 6.22105Z" fill="white"/>
</g>
<defs>
<clipPath id="clip0_349_1849">
<rect width="17" height="17" fill="white"/>
</clipPath>
</defs>
</svg>
