<svg width="100" height="16" viewBox="0 0 100 16" fill="none" xmlns="http://www.w3.org/2000/svg">
<path d="M8.57422 5.23438H12.1484C12.1289 2.49023 9.99023 0.664062 6.60156 0.664062C3.28125 0.664062 0.917969 2.46094 0.9375 5.13672C0.927734 7.32422 2.45117 8.55469 4.94141 9.10156L6.36719 9.41406C7.93945 9.75586 8.52539 10.1562 8.53516 10.8398C8.52539 11.5918 7.8418 12.1094 6.5625 12.1094C5.08789 12.1094 4.17969 11.416 4.12109 10.0977H0.566406C0.595703 13.584 2.96875 15.166 6.62109 15.1758C10.1953 15.166 12.3242 13.6133 12.3438 10.8398C12.3242 8.66211 10.9668 7.1875 7.92969 6.54297L6.75781 6.26953C5.43945 5.99609 4.77539 5.5957 4.80469 4.86328C4.81445 4.20898 5.38086 3.7207 6.60156 3.73047C7.87109 3.7207 8.49609 4.28711 8.57422 5.23438ZM20.1367 4.39453H18.2812V1.85547H14.5898V4.39453H13.2227V7.07031H14.5898V11.9727C14.5605 14.1797 15.9473 15.1465 18.5156 15.1562C19.3457 15.1465 19.9316 15.0879 20.2734 15.0195V12.2656C19.8535 12.3047 19.3066 12.334 19.043 12.3242C18.5254 12.2949 18.2812 12.0996 18.2812 11.6016V7.07031H20.1367V4.39453ZM26.6602 15.1953C30.0781 15.1953 32.1191 12.9883 32.1094 9.72656C32.1191 6.46484 30.0781 4.25781 26.6602 4.25781C23.2422 4.25781 21.2012 6.46484 21.1914 9.72656C21.2012 12.9883 23.2422 15.1953 26.6602 15.1953ZM24.9609 9.70703C24.9707 8.00781 25.5957 6.94336 26.6797 6.95312C27.7148 6.94336 28.3496 8.00781 28.3398 9.70703C28.3496 11.3867 27.7148 12.4512 26.6797 12.4609C25.5957 12.4512 24.9707 11.3867 24.9609 9.70703ZM38.7695 15.1953C41.8652 15.1953 43.7695 13.4082 43.8281 10.6445H40.3906C40.3027 11.7676 39.6777 12.373 38.8281 12.3828C37.7637 12.373 37.0801 11.4746 37.0703 9.6875C37.0801 7.91992 37.7734 7.02148 38.8281 7.03125C39.6973 7.02148 40.2832 7.63672 40.3906 8.75H43.8281C43.7891 6.02539 41.8359 4.25781 38.7695 4.25781C35.3516 4.25781 33.3105 6.46484 33.3008 9.72656C33.3105 12.9785 35.3418 15.1953 38.7695 15.1953ZM45.4297 15H49.1211V11.9336L49.7168 11.1914L51.9727 15H56.2109L52.4512 9.04297L56.0938 4.39453H51.9336L49.2578 8.02734H49.1211V0.859375H45.4297V15ZM61.4648 15H65.1758V9.43359H70.3906V15H74.1211V0.859375H70.3906V6.42578H65.1758V0.859375H61.4648V15ZM82.9102 10.3711C82.9199 11.4746 82.2656 12.1289 81.3086 12.1289C80.3223 12.1289 79.7461 11.4746 79.7461 10.3906V4.39453H76.0547V11.1523C76.0547 13.4961 77.5195 15.1367 79.7266 15.1367C81.3184 15.1367 82.5195 14.3359 82.9883 12.9883H83.1055V15H86.6016V4.39453H82.9102V10.3711ZM88.5547 15H92.207V13.2617H92.3047C92.7344 14.3164 93.7402 15.1465 95.2539 15.1367C97.5488 15.1465 99.4531 13.3594 99.4531 9.70703C99.4531 5.88867 97.4121 4.25781 95.293 4.25781C93.6816 4.25781 92.7051 5.18555 92.3047 6.23047H92.2461V0.859375H88.5547V15ZM92.1484 9.6875C92.1582 8.07617 92.8125 7.09961 93.9258 7.10938C95.0195 7.09961 95.6543 8.08594 95.6445 9.6875C95.6543 11.3086 95.0195 12.2949 93.9258 12.3047C92.8223 12.2949 92.1582 11.2891 92.1484 9.6875Z" fill="#54BA7D"/>
</svg>
