<svg width="442" height="259" viewBox="0 0 442 259" fill="none" xmlns="http://www.w3.org/2000/svg">
<g clip-path="url(#clip0_372_691)">
<path d="M25.4094 170.882L70.5907 135.022L82.9285 143.211L208.232 37.7406" stroke="#B9FFD5" stroke-width="2"/>
<path d="M74.1129 172.39H44.05C43.2921 172.39 42.6754 171.772 42.6754 171.012C42.6754 170.252 43.2921 169.634 44.05 169.634H74.1129C74.8708 169.634 75.4872 170.252 75.4872 171.012C75.4872 171.772 74.8708 172.39 74.1129 172.39H74.1129Z" fill="#4EFF8D"/>
<path d="M20.4221 179.769C20.4221 180.016 20.6204 180.215 20.8673 180.215H97.2954C97.5423 180.215 97.7406 180.016 97.7406 179.769C97.7406 179.521 97.5423 179.322 97.2954 179.322H20.8673C20.6204 179.322 20.4221 179.521 20.4221 179.769Z" fill="#AEFFCF"/>
<path d="M203.25 140.849C210.706 140.849 216.75 134.611 216.75 126.915C216.75 119.219 210.706 112.981 203.25 112.981C195.794 112.981 189.75 119.219 189.75 126.915C189.75 134.611 195.794 140.849 203.25 140.849Z" fill="#BDFFD0"/>
<path d="M59.6026 125.493C67.064 125.493 73.1126 119.409 73.1126 111.905C73.1126 104.4 67.064 98.3163 59.6026 98.3163C52.1413 98.3163 46.0927 104.4 46.0927 111.905C46.0927 119.409 52.1413 125.493 59.6026 125.493Z" fill="#BDFFD0"/>
<path d="M0 210.583C0 210.831 0.198293 211.03 0.44522 211.03H195.842C196.089 211.03 196.287 210.831 196.287 210.583C196.287 210.336 196.089 210.137 195.842 210.137H0.44522C0.198293 210.137 0 210.336 0 210.583Z" fill="#AEFFCF"/>
<path d="M210.76 40.7022L209.84 40.5704L209.046 37.0822L205.911 35.7122L205.974 34.7841L211.536 35.1766L210.76 40.7022Z" fill="#B9FFD5"/>
<path d="M116.232 60.0189L119.511 47.3769L132.286 46.7607L136.108 64.1873L116.232 60.0189Z" fill="#FFB6B6"/>
<path opacity="0.1" d="M116.232 60.0189L119.511 47.3769L132.286 46.7607L136.108 64.1873L116.232 60.0189Z" fill="#FFDEDE"/>
<path d="M124.638 54.4517C133.154 54.4517 140.058 47.5287 140.058 38.9888C140.058 30.4489 133.154 23.5259 124.638 23.5259C116.122 23.5259 109.218 30.4489 109.218 38.9888C109.218 47.5287 116.122 54.4517 124.638 54.4517Z" fill="#FFDEDE"/>
<path d="M133.146 42.2618H133.146C133.146 42.2618 127.288 30.6232 120.425 31.2952C113.561 31.9671 109.946 32.7843 109.946 32.7843C109.946 32.7843 107.908 23.7197 117.5 20.233C117.5 20.233 105.305 8.17747 119.824 2.26372C134.344 -3.65004 142.469 3.89221 142.469 3.89221C142.469 3.89221 153.217 14.6517 139.68 22.6935C139.68 22.6935 149.732 36.2515 137.562 47.4263C137.562 47.4263 140.284 38.3834 137.444 40.0511C134.604 41.7187 133.146 42.2618 133.146 42.2618V42.2618L133.146 42.2618L133.146 42.2618Z" fill="#2F2E41"/>
<path d="M107.736 124.279L105.686 126.801L90.8716 167.568L89.25 235H114.14L125.816 201.607L133.682 234.678H156.062L161.25 174.645L147.304 132.188L107.736 124.279Z" fill="#2F2E41"/>
<path d="M133.415 58.7342H116.789L98.7041 68.4935L102.921 87.3614C102.921 87.3614 101.948 98.7472 104.219 107.205C106.49 115.663 105.516 126.724 105.516 126.724L147.202 130.14L148.499 91.7531L147.851 66.0537L133.415 58.7342V58.7342Z" fill="#FFF4CC"/>
<path d="M101.461 68.6561C101.461 68.6561 91.4051 68.9814 89.7831 75.4876C88.1611 81.9938 86.8635 115.501 86.8635 115.501C86.8635 115.501 87.8367 135.383 98.7041 125.93C109.571 116.477 108.598 87.8494 108.598 87.8494L101.461 68.6561Z" fill="#FFF4CC"/>
<path d="M199.002 234.625H139.739C137.732 234.625 136.099 232.987 136.099 230.975V169.538C136.099 167.526 137.732 165.888 139.739 165.888H199.002C201.01 165.888 202.642 167.526 202.642 169.538V230.975C202.642 232.987 201.01 234.625 199.002 234.625Z" fill="white"/>
<path d="M199.002 235H139.739C137.526 235 135.725 233.194 135.725 230.975V169.538C135.725 167.319 137.526 165.513 139.739 165.513H199.002C201.216 165.513 203.016 167.319 203.016 169.538V230.975C203.016 233.194 201.216 235 199.002 235ZM139.739 166.263C137.938 166.263 136.473 167.732 136.473 169.538V230.975C136.473 232.781 137.938 234.25 139.739 234.25H199.002C200.803 234.25 202.268 232.781 202.268 230.975V169.538C202.268 167.732 200.803 166.263 199.002 166.263H139.739Z" fill="#3CC572"/>
<path d="M171.709 218.485H166.825C166.23 218.485 165.746 218.11 165.746 217.65V196.562C165.746 196.101 166.23 195.727 166.825 195.727H171.709C172.304 195.727 172.788 196.101 172.788 196.562V217.65C172.788 218.11 172.304 218.485 171.709 218.485Z" fill="#4EFF8D"/>
<path d="M155.561 206.057C155.08 206.057 154.689 206.36 154.689 206.732V217.627C154.689 217.998 155.08 218.301 155.561 218.301H160.445C160.926 218.301 161.317 217.998 161.317 217.627V206.732C161.317 206.36 160.926 206.057 160.445 206.057H155.561Z" fill="#4EFF8D"/>
<path d="M182.973 218.485H178.089C177.494 218.485 177.01 218.11 177.01 217.65V183.09C177.01 182.629 177.494 182.255 178.089 182.255H182.973C183.568 182.255 184.052 182.629 184.052 183.09V217.65C184.052 218.11 183.568 218.485 182.973 218.485Z" fill="#4EFF8D"/>
<path d="M77.8628 66.994H72.2833C71.6039 66.994 71.0513 66.5662 71.0513 66.0404V41.9512C71.0513 41.4253 71.6039 40.9976 72.2833 40.9976H77.8628C78.5421 40.9976 79.0947 41.4253 79.0947 41.9512V66.0404C79.0947 66.5662 78.5421 66.994 77.8628 66.994V66.9939V66.994Z" fill="#4EFF8D"/>
<path d="M59.4165 52.798C58.8677 52.798 58.4211 53.1436 58.4211 53.5684V66.0134C58.4211 66.4382 58.8677 66.7839 59.4165 66.7839H64.996C65.5448 66.7839 65.9914 66.4382 65.9914 66.0134V53.5684C65.9914 53.1436 65.5448 52.798 64.996 52.798H59.4165Z" fill="#4EFF8D"/>
<path d="M90.7295 66.994H85.15C84.4707 66.994 83.9181 66.5662 83.9181 66.0404V26.5625C83.9181 26.0366 84.4707 25.6089 85.15 25.6089H90.7295C91.4089 25.6089 91.9615 26.0366 91.9615 26.5625V66.0404C91.9615 66.5662 91.4089 66.994 90.7295 66.994V66.994V66.994Z" fill="#4EFF8D"/>
<path d="M160.285 174.827C163.175 174.55 165.165 170.633 164.73 166.078C164.582 164.256 164 162.496 163.034 160.946L162.477 155.79L162.562 155.765L163.962 131.32C164.288 125.636 162.044 120.051 157.721 116.36C155.15 114.165 152.407 113.053 150.643 115.827C147.716 120.43 151.507 139.405 153.997 150.193L154.962 161.721C154.306 163.427 154.068 165.266 154.266 167.084C154.7 171.638 157.395 175.104 160.285 174.827V174.827Z" fill="#FFDEDE"/>
<path d="M144.282 66.7043C144.282 66.7043 152.717 63.4512 156.609 73.2105C160.502 82.9697 164.719 131.116 164.719 131.116L144.931 127.537L144.282 66.7043V66.7043V66.7043Z" fill="#FFF4CC"/>
<path d="M28.4672 61.9308H17.1101C16.3522 61.9308 15.7355 61.3124 15.7355 60.5524C15.7355 59.7923 16.3522 59.1742 17.1101 59.1742H28.4672C29.2251 59.1742 29.8415 59.7923 29.8415 60.5524C29.8415 61.3124 29.2251 61.9308 28.4672 61.9308Z" fill="#AEFFCF"/>
<path d="M28.4672 42.3926H17.1101C16.3522 42.3926 15.7355 41.7741 15.7355 41.0141C15.7355 40.2541 16.3522 39.6359 17.1101 39.6359H28.4672C29.2251 39.6359 29.8415 40.2541 29.8415 41.0141C29.8415 41.7741 29.2251 42.3926 28.4672 42.3926Z" fill="#AEFFCF"/>
<path d="M28.4672 28.3025H17.1101C16.3522 28.3025 15.7355 27.684 15.7355 26.924C15.7355 26.164 16.3522 25.5458 17.1101 25.5458H28.4672C29.2251 25.5458 29.8415 26.164 29.8415 26.924C29.8415 27.6841 29.2251 28.3025 28.4672 28.3025Z" fill="#AEFFCF"/>
<path d="M15.2799 67.0621C15.2799 67.3097 15.4782 67.5085 15.7251 67.5085H92.1532C92.4001 67.5085 92.5984 67.3097 92.5984 67.0621C92.5984 66.8145 92.4001 66.6157 92.1532 66.6157H15.7251C15.4782 66.6157 15.2799 66.8145 15.2799 67.0621Z" fill="#AEFFCF"/>
<path d="M162.681 182.613C162.681 182.86 162.88 183.059 163.127 183.059H239.555C239.802 183.059 240 182.86 240 182.613C240 182.365 239.802 182.166 239.555 182.166H163.127C162.88 182.166 162.681 182.365 162.681 182.613Z" fill="#A6FFC9"/>
<path d="M140.235 219.004C140.235 219.251 140.433 219.45 140.68 219.45H217.108C217.355 219.45 217.553 219.251 217.553 219.004C217.553 218.756 217.355 218.557 217.108 218.557H140.68C140.433 218.557 140.235 218.756 140.235 219.004Z" fill="#AEFFCF"/>
<path d="M88.8402 64.8051C85.9503 65.0825 83.9602 68.9986 84.395 73.5539C84.5438 75.376 85.1256 77.1358 86.0916 78.6862L86.6487 83.8417L86.5633 83.8674L85.1633 108.312C84.8378 113.996 87.0814 119.581 91.404 123.272C93.9754 125.467 96.7186 126.579 98.4826 123.805C101.41 119.202 97.6183 100.227 95.1285 89.4393L94.1632 77.9113C94.819 76.2049 95.0575 74.3658 94.859 72.5479C94.425 67.9942 91.7301 64.5276 88.8402 64.805H88.8402V64.8051Z" fill="#FFDEDE"/>
<path d="M21.375 125.785L23.3114 131.77L29.5779 131.77L24.5082 135.47L26.4446 141.455L21.375 137.756L16.3054 141.455L18.2418 135.47L13.1721 131.77L19.4386 131.77L21.375 125.785Z" fill="#4EFF8D"/>
<path d="M209.049 55.9274L208.95 61.3254L214.031 63.0876L208.889 64.6616L208.79 70.0596L205.711 65.6343L200.568 67.2083L203.808 62.8994L200.728 58.4741L205.809 60.2363L209.049 55.9274Z" fill="#4EFF8D"/>
</g>
<g clip-path="url(#clip1_372_691)">
<path d="M397.476 195.615H240.969C239.901 195.614 238.877 195.19 238.121 194.436C237.366 193.682 236.941 192.66 236.94 191.594V95.3095C236.941 94.5285 237.252 93.7799 237.805 93.2277C238.359 92.6755 239.109 92.3649 239.892 92.364H398.502C399.298 92.3649 400.062 92.6808 400.625 93.2426C401.188 93.8043 401.504 94.566 401.505 95.3604V191.594C401.504 192.66 401.079 193.682 400.324 194.436C399.568 195.19 398.544 195.614 397.476 195.615Z" fill="#F2F2F2"/>
<path d="M391.766 189.921H245.907C243.769 189.921 242.029 188.296 242.029 186.298V102.452C242.029 100.971 243.318 99.7653 244.902 99.7653H392.723C394.334 99.7653 395.644 100.991 395.644 102.496V186.298C395.644 188.296 393.905 189.921 391.766 189.921Z" fill="white"/>
<path d="M401.449 95.0795H236.883V93.0326C236.885 91.9631 237.311 90.9379 238.07 90.1819C238.828 89.4259 239.856 89.0009 240.928 89H397.405C398.477 89.0009 399.505 89.4259 400.263 90.1819C401.021 90.9379 401.448 91.9631 401.449 93.0326V95.0795Z" fill="#CCCCCC"/>
<path d="M244.233 93.0895C244.811 93.0895 245.279 92.6222 245.279 92.0458C245.279 91.4694 244.811 91.0021 244.233 91.0021C243.655 91.0021 243.187 91.4694 243.187 92.0458C243.187 92.6222 243.655 93.0895 244.233 93.0895Z" fill="white"/>
<path d="M248.204 93.0895C248.782 93.0895 249.25 92.6222 249.25 92.0458C249.25 91.4694 248.782 91.0021 248.204 91.0021C247.626 91.0021 247.158 91.4694 247.158 92.0458C247.158 92.6222 247.626 93.0895 248.204 93.0895Z" fill="white"/>
<path d="M252.175 93.0895C252.752 93.0895 253.221 92.6222 253.221 92.0458C253.221 91.4694 252.752 91.0021 252.175 91.0021C251.597 91.0021 251.129 91.4694 251.129 92.0458C251.129 92.6222 251.597 93.0895 252.175 93.0895Z" fill="white"/>
<path d="M375.712 175.859H262.677C261.544 175.858 260.457 175.408 259.656 174.608C258.855 173.809 258.404 172.725 258.403 171.595V117.22C258.404 116.375 258.741 115.564 259.34 114.966C259.939 114.368 260.752 114.032 261.599 114.031H376.738C377.599 114.032 378.425 114.374 379.033 114.981C379.642 115.588 379.985 116.412 379.986 117.271V171.595C379.984 172.725 379.534 173.809 378.732 174.608C377.931 175.408 376.845 175.858 375.712 175.859ZM261.599 114.518C260.881 114.519 260.193 114.804 259.685 115.31C259.178 115.817 258.892 116.504 258.891 117.22V171.595C258.893 172.596 259.292 173.556 260.001 174.264C260.711 174.972 261.673 175.37 262.677 175.371H375.712C376.715 175.37 377.678 174.972 378.387 174.264C379.097 173.556 379.496 172.596 379.497 171.595V117.271C379.496 116.541 379.205 115.841 378.688 115.325C378.171 114.809 377.47 114.519 376.738 114.518H261.599Z" fill="#CCCCCC"/>
<path d="M266.584 171.595H371.804C372.841 171.595 373.834 171.184 374.567 170.453C375.3 169.722 375.712 168.73 375.712 167.696V122.241C375.712 121.207 375.3 120.215 374.567 119.484C373.834 118.753 372.841 118.342 371.804 118.342H266.584C265.548 118.342 264.554 118.753 263.821 119.484C263.089 120.215 262.677 121.207 262.677 122.241V167.696C262.677 168.73 263.089 169.722 263.821 170.453C264.554 171.184 265.548 171.595 266.584 171.595Z" fill="#F2F2F2"/>
<path d="M278.531 131.567C279.745 131.567 280.729 130.585 280.729 129.374C280.729 128.163 279.745 127.181 278.531 127.181C277.318 127.181 276.333 128.163 276.333 129.374C276.333 130.585 277.318 131.567 278.531 131.567Z" fill="#CCCCCC"/>
<path d="M278.531 139.852C279.745 139.852 280.729 138.87 280.729 137.659C280.729 136.447 279.745 135.466 278.531 135.466C277.318 135.466 276.333 136.447 276.333 137.659C276.333 138.87 277.318 139.852 278.531 139.852Z" fill="#CCCCCC"/>
<path d="M278.531 148.136C279.745 148.136 280.729 147.154 280.729 145.943C280.729 144.732 279.745 143.75 278.531 143.75C277.318 143.75 276.333 144.732 276.333 145.943C276.333 147.154 277.318 148.136 278.531 148.136Z" fill="#CCCCCC"/>
<path d="M278.531 156.421C279.745 156.421 280.729 155.439 280.729 154.228C280.729 153.017 279.745 152.035 278.531 152.035C277.318 152.035 276.333 153.017 276.333 154.228C276.333 155.439 277.318 156.421 278.531 156.421Z" fill="#CCCCCC"/>
<path d="M361.811 129.618H289.521C289.457 129.618 289.395 129.592 289.349 129.546C289.303 129.501 289.277 129.439 289.277 129.374C289.277 129.309 289.303 129.247 289.349 129.202C289.395 129.156 289.457 129.13 289.521 129.13H361.811C361.876 129.13 361.938 129.156 361.984 129.202C362.029 129.247 362.055 129.309 362.055 129.374C362.055 129.439 362.029 129.501 361.984 129.546C361.938 129.592 361.876 129.618 361.811 129.618Z" fill="#CCCCCC"/>
<path d="M361.811 137.902H289.521C289.457 137.902 289.395 137.877 289.349 137.831C289.303 137.785 289.277 137.723 289.277 137.659C289.277 137.594 289.303 137.532 289.349 137.486C289.395 137.441 289.457 137.415 289.521 137.415H361.811C361.876 137.415 361.938 137.441 361.984 137.486C362.029 137.532 362.055 137.594 362.055 137.659C362.055 137.723 362.029 137.785 361.984 137.831C361.938 137.877 361.876 137.902 361.811 137.902Z" fill="#CCCCCC"/>
<path d="M361.811 146.187H289.521C289.457 146.187 289.395 146.161 289.349 146.115C289.303 146.07 289.277 146.008 289.277 145.943C289.277 145.879 289.303 145.817 289.349 145.771C289.395 145.725 289.457 145.7 289.521 145.7H361.811C361.876 145.7 361.938 145.725 361.984 145.771C362.029 145.817 362.055 145.879 362.055 145.943C362.055 146.008 362.029 146.07 361.984 146.115C361.938 146.161 361.876 146.187 361.811 146.187Z" fill="#CCCCCC"/>
<path d="M361.811 154.471H289.521C289.457 154.471 289.395 154.446 289.349 154.4C289.303 154.354 289.277 154.292 289.277 154.228C289.277 154.163 289.303 154.101 289.349 154.056C289.395 154.01 289.457 153.984 289.521 153.984H361.811C361.876 153.984 361.938 154.01 361.984 154.056C362.029 154.101 362.055 154.163 362.055 154.228C362.055 154.292 362.029 154.354 361.984 154.4C361.938 154.446 361.876 154.471 361.811 154.471Z" fill="#CCCCCC"/>
<path d="M303.198 162.756H296.115C295.792 162.756 295.481 162.627 295.252 162.399C295.023 162.17 294.895 161.861 294.894 161.538V154.959C294.895 154.636 295.023 154.326 295.252 154.098C295.481 153.869 295.792 153.741 296.115 153.74H303.198C303.522 153.741 303.832 153.869 304.061 154.098C304.29 154.326 304.419 154.636 304.419 154.959V161.538C304.419 161.861 304.29 162.17 304.061 162.399C303.832 162.627 303.522 162.756 303.198 162.756Z" fill="#4EFF8D"/>
<path d="M319.072 162.756H311.99C311.666 162.756 311.356 162.627 311.127 162.399C310.898 162.17 310.769 161.861 310.769 161.538V146.674C310.769 146.351 310.898 146.042 311.127 145.813C311.356 145.585 311.666 145.456 311.99 145.456H319.072C319.396 145.456 319.706 145.585 319.935 145.813C320.164 146.042 320.293 146.351 320.293 146.674V161.538C320.293 161.861 320.164 162.17 319.935 162.399C319.706 162.627 319.396 162.756 319.072 162.756Z" fill="#4EFF8D"/>
<path d="M335.191 162.756H328.108C327.785 162.756 327.474 162.627 327.245 162.399C327.016 162.17 326.888 161.861 326.887 161.538V138.39C326.888 138.067 327.016 137.757 327.245 137.529C327.474 137.3 327.785 137.172 328.108 137.171H335.191C335.515 137.172 335.825 137.3 336.054 137.529C336.283 137.757 336.412 138.067 336.412 138.39V161.538C336.412 161.861 336.283 162.17 336.054 162.399C335.825 162.627 335.515 162.756 335.191 162.756Z" fill="#4EFF8D"/>
<path d="M351.798 162.756H344.715C344.392 162.756 344.081 162.627 343.852 162.399C343.623 162.17 343.495 161.861 343.494 161.538V130.349C343.495 130.026 343.623 129.716 343.852 129.488C344.081 129.259 344.392 129.131 344.715 129.13H351.798C352.122 129.131 352.432 129.259 352.661 129.488C352.89 129.716 353.019 130.026 353.019 130.349V161.538C353.019 161.861 352.89 162.17 352.661 162.399C352.432 162.627 352.122 162.756 351.798 162.756Z" fill="#4EFF8D"/>
<path d="M361.811 162.756H289.521C289.457 162.756 289.395 162.73 289.349 162.685C289.303 162.639 289.277 162.577 289.277 162.512C289.277 162.448 289.303 162.386 289.349 162.34C289.395 162.294 289.457 162.269 289.521 162.269H361.811C361.876 162.269 361.938 162.294 361.984 162.34C362.029 162.386 362.055 162.448 362.055 162.512C362.055 162.577 362.029 162.639 361.984 162.685C361.938 162.73 361.876 162.756 361.811 162.756Z" fill="#3F3D56"/>
<path d="M393.571 208.211C393.769 207.912 394.03 207.66 394.336 207.473C394.642 207.286 394.986 207.168 395.343 207.127C395.699 207.087 396.061 207.125 396.401 207.239C396.741 207.352 397.053 207.539 397.313 207.786L405.068 203.793L404.586 208.292L397.295 211.394C396.851 211.803 396.271 212.035 395.667 212.045C395.062 212.056 394.475 211.845 394.016 211.453C393.557 211.061 393.258 210.514 393.176 209.916C393.094 209.319 393.235 208.712 393.571 208.211Z" fill="#FFB8B8"/>
<path d="M400.244 209.889C400.068 209.751 399.938 209.563 399.872 209.35L399.255 207.362C399.189 207.147 399.191 206.916 399.26 206.702C399.329 206.487 399.463 206.299 399.643 206.163L405.928 201.426L412.736 188.825C413.021 188.459 413.376 188.152 413.78 187.923C414.184 187.693 414.629 187.545 415.091 187.487C415.552 187.429 416.02 187.462 416.468 187.585C416.917 187.708 417.337 187.917 417.704 188.202C418.071 188.486 418.379 188.84 418.609 189.243C418.839 189.646 418.987 190.091 419.045 190.551C419.103 191.011 419.07 191.478 418.947 191.926C418.824 192.373 418.614 192.792 418.329 193.158L414.456 201.314C413.281 203.789 411.244 205.755 408.726 206.844L401.359 210.032C401.218 210.093 401.065 210.124 400.91 210.122C400.756 210.121 400.604 210.087 400.463 210.022C400.385 209.987 400.312 209.942 400.244 209.889Z" fill="#3F3D56"/>
<path d="M418.5 183.567C421.813 183.567 424.498 180.887 424.498 177.582C424.498 174.277 421.813 171.597 418.5 171.597C415.187 171.597 412.502 174.277 412.502 177.582C412.502 180.887 415.187 183.567 418.5 183.567Z" fill="#FFB8B8"/>
<path d="M416.066 256.09L413.072 256.089L411.648 244.567L416.068 244.567L416.066 256.09Z" fill="#FFB8B8"/>
<path d="M410.934 255.236H416.708V258.863H407.298C407.298 258.387 407.392 257.915 407.575 257.475C407.758 257.035 408.026 256.635 408.363 256.298C408.701 255.961 409.102 255.694 409.543 255.512C409.984 255.33 410.456 255.236 410.934 255.236Z" fill="#2F2E41"/>
<path d="M425.835 256.09L422.842 256.09L421.418 244.567L425.837 244.568L425.835 256.09Z" fill="#FFB8B8"/>
<path d="M420.703 255.236H426.477V258.864H417.067C417.067 258.387 417.161 257.916 417.344 257.475C417.527 257.035 417.794 256.636 418.132 256.299C418.47 255.962 418.87 255.695 419.311 255.512C419.753 255.33 420.225 255.236 420.703 255.236Z" fill="#2F2E41"/>
<path d="M426.054 253.166L422.546 253.166C422.304 253.166 422.069 253.086 421.878 252.94C421.686 252.793 421.548 252.588 421.485 252.355L416.434 233.666C416.426 233.636 416.408 233.611 416.382 233.595C416.357 233.579 416.326 233.572 416.297 233.577C416.267 233.582 416.24 233.598 416.221 233.621C416.202 233.645 416.193 233.674 416.194 233.705L417.215 251.429C417.224 251.586 417.199 251.743 417.142 251.889C417.085 252.036 416.997 252.168 416.884 252.277C416.772 252.387 416.637 252.471 416.489 252.524C416.341 252.577 416.183 252.598 416.026 252.585L412.082 252.257C411.83 252.235 411.592 252.127 411.41 251.951C411.228 251.775 411.112 251.542 411.082 251.291L407.489 214.072L408.879 214.904L421.903 212.698L427.144 251.925C427.164 252.08 427.152 252.237 427.106 252.387C427.061 252.536 426.984 252.675 426.881 252.792C426.778 252.91 426.651 253.004 426.508 253.068C426.366 253.133 426.211 253.166 426.054 253.166H426.054Z" fill="#2F2E41"/>
<path d="M411.845 218.001C410.408 217.989 409.001 217.594 407.769 216.856C407.579 216.744 407.428 216.577 407.334 216.377C407.241 216.178 407.211 215.955 407.247 215.738C407.705 212.939 410.101 198.582 412.28 190.755C413.168 187.567 415.13 185.85 418.114 185.652C422.477 185.366 426.356 188.773 426.76 193.254C427.472 201.161 424.578 212.394 423.301 216.857C423.251 217.029 423.16 217.187 423.035 217.316C422.911 217.445 422.756 217.541 422.585 217.597C422.414 217.652 422.232 217.665 422.055 217.634C421.878 217.603 421.712 217.529 421.57 217.419L418.966 215.398C418.806 215.276 418.608 215.214 418.406 215.222C418.205 215.23 418.013 215.309 417.863 215.444C415.669 217.397 413.584 218.001 411.845 218.001Z" fill="#3F3D56"/>
<path opacity="0.2" d="M420.457 197.123L422.654 206.383L419.479 214.18L421.677 206.626L420.457 197.123Z" fill="black"/>
<path d="M421.923 182.503C422.456 182.513 422.986 182.418 423.483 182.222C423.701 182.138 423.928 182.069 424.146 181.985C426.071 181.243 427.339 179.198 427.384 177.139C427.43 175.081 426.361 173.083 424.775 171.767C423.189 170.45 421.134 169.774 419.076 169.617C416.86 169.449 414.364 170.01 413.126 171.851C412.796 172.341 412.565 172.936 412.761 173.528C412.819 173.707 412.924 173.867 413.064 173.992C413.617 174.483 414.168 174.114 414.732 174.082C415.507 174.037 416.203 174.663 416.453 175.396C416.703 176.129 416.593 176.936 416.391 177.684C416.237 178.134 416.14 178.601 416.102 179.075C416.086 179.313 416.131 179.551 416.232 179.767C416.334 179.982 416.489 180.168 416.683 180.307C417.167 180.599 417.803 180.43 418.288 180.139C418.772 179.847 419.191 179.442 419.714 179.227C420.238 179.013 420.941 179.06 421.246 179.536C421.343 179.709 421.408 179.898 421.439 180.094C421.712 181.335 421.65 181.262 421.923 182.503Z" fill="#2F2E41"/>
<path d="M412.625 247.731L375.065 234.68C374.421 234.455 373.892 233.984 373.595 233.371C373.298 232.758 373.256 232.052 373.48 231.408L383.241 203.446C383.406 202.975 383.751 202.588 384.202 202.371C384.652 202.154 385.17 202.124 385.643 202.287L424.473 215.779C424.953 215.947 425.347 216.298 425.569 216.755C425.79 217.212 425.821 217.738 425.654 218.217L415.904 246.149C415.679 246.792 415.207 247.32 414.593 247.616C413.978 247.913 413.27 247.954 412.625 247.731Z" fill="#E6E6E6"/>
<path d="M378.27 233.073L411.114 244.485C411.74 244.702 412.426 244.663 413.022 244.375C413.618 244.088 414.076 243.576 414.294 242.952L422.175 220.372C422.393 219.748 422.353 219.063 422.065 218.468C421.777 217.873 421.264 217.417 420.638 217.2L387.794 205.788C387.169 205.57 386.483 205.61 385.886 205.897C385.29 206.185 384.833 206.697 384.615 207.321L376.733 229.901C376.626 230.21 376.58 230.537 376.599 230.863C376.617 231.19 376.701 231.51 376.843 231.804C376.986 232.099 377.186 232.363 377.43 232.58C377.675 232.798 377.961 232.965 378.27 233.073Z" fill="white"/>
<path d="M386.518 217.209L384.891 216.644C384.803 216.613 384.731 216.548 384.69 216.464C384.649 216.381 384.644 216.284 384.674 216.196L385.241 214.573C385.272 214.485 385.336 214.413 385.42 214.372C385.504 214.332 385.601 214.326 385.689 214.357L387.316 214.922C387.404 214.953 387.477 215.017 387.517 215.101C387.558 215.185 387.564 215.281 387.533 215.37L386.966 216.992C386.936 217.08 386.871 217.153 386.787 217.193C386.703 217.234 386.606 217.239 386.518 217.209Z" fill="#4EFF8D"/>
<path d="M385.05 221.413L383.424 220.848C383.336 220.817 383.263 220.753 383.223 220.669C383.182 220.585 383.176 220.489 383.207 220.401L383.773 218.778C383.804 218.69 383.869 218.618 383.953 218.577C384.037 218.537 384.134 218.531 384.222 218.561L385.849 219.127C385.937 219.157 386.009 219.222 386.05 219.306C386.09 219.39 386.096 219.486 386.065 219.574L385.499 221.197C385.468 221.285 385.404 221.357 385.32 221.398C385.235 221.438 385.139 221.444 385.05 221.413Z" fill="#3F3D56"/>
<path d="M383.583 225.618L381.956 225.053C381.868 225.022 381.795 224.958 381.755 224.874C381.714 224.79 381.708 224.693 381.739 224.605L382.306 222.983C382.336 222.895 382.401 222.822 382.485 222.782C382.569 222.741 382.666 222.736 382.754 222.766L384.381 223.331C384.469 223.362 384.541 223.427 384.582 223.51C384.623 223.594 384.628 223.691 384.598 223.779L384.031 225.402C384 225.49 383.936 225.562 383.852 225.603C383.768 225.643 383.671 225.649 383.583 225.618Z" fill="#CCCCCC"/>
<path d="M397.448 220.097L389.611 217.373C389.567 217.358 389.526 217.335 389.492 217.304C389.457 217.273 389.429 217.236 389.409 217.195C389.388 217.153 389.377 217.108 389.374 217.062C389.371 217.016 389.378 216.969 389.393 216.926C389.408 216.882 389.432 216.842 389.463 216.807C389.494 216.773 389.531 216.745 389.573 216.725C389.614 216.704 389.66 216.693 389.706 216.69C389.752 216.688 389.799 216.694 389.842 216.71L397.68 219.433C397.723 219.448 397.764 219.471 397.798 219.502C397.833 219.533 397.861 219.57 397.882 219.612C397.902 219.653 397.914 219.698 397.916 219.745C397.919 219.791 397.912 219.837 397.897 219.881C397.882 219.924 397.858 219.964 397.827 219.999C397.797 220.034 397.759 220.062 397.717 220.082C397.676 220.102 397.63 220.113 397.584 220.116C397.538 220.119 397.492 220.112 397.448 220.097Z" fill="#CCCCCC"/>
<path d="M395.98 224.301L388.143 221.578C388.055 221.548 387.982 221.483 387.942 221.399C387.901 221.315 387.895 221.219 387.926 221.131C387.957 221.043 388.021 220.97 388.106 220.93C388.19 220.889 388.286 220.884 388.375 220.914L396.212 223.637C396.256 223.653 396.296 223.676 396.331 223.707C396.365 223.738 396.394 223.775 396.414 223.816C396.434 223.858 396.446 223.903 396.448 223.949C396.451 223.995 396.445 224.042 396.429 224.085C396.414 224.129 396.39 224.169 396.36 224.204C396.329 224.238 396.291 224.266 396.25 224.286C396.208 224.306 396.163 224.318 396.116 224.321C396.07 224.323 396.024 224.317 395.98 224.301Z" fill="#CCCCCC"/>
<path d="M394.512 228.506L386.675 225.783C386.587 225.752 386.515 225.688 386.474 225.604C386.433 225.52 386.428 225.423 386.458 225.335C386.489 225.247 386.554 225.175 386.638 225.135C386.722 225.094 386.819 225.088 386.907 225.119L394.744 227.842C394.832 227.873 394.905 227.937 394.945 228.021C394.986 228.105 394.992 228.202 394.961 228.29C394.93 228.378 394.866 228.45 394.782 228.491C394.698 228.531 394.601 228.537 394.512 228.506Z" fill="#CCCCCC"/>
<path d="M415.369 230.784C415.426 230.648 415.479 230.509 415.529 230.367C416.173 228.522 416.056 226.496 415.204 224.737C414.351 222.978 412.833 221.628 410.984 220.986L408.408 228.365L415.369 230.784Z" fill="#4EFF8D"/>
<path d="M407.658 228.814L410.234 221.435C408.873 220.962 407.403 220.896 406.005 221.247C404.607 221.598 403.342 222.349 402.367 223.408C401.392 224.467 400.749 225.788 400.517 227.208C400.285 228.627 400.474 230.083 401.062 231.397C401.65 232.71 402.61 233.823 403.824 234.598C405.038 235.374 406.453 235.778 407.895 235.76C409.336 235.743 410.741 235.305 411.936 234.5C413.131 233.696 414.064 232.56 414.619 231.233L407.658 228.814Z" fill="#3F3D56"/>
<path d="M416.881 218.228C416.851 217.871 416.901 217.512 417.026 217.176C417.151 216.84 417.348 216.536 417.604 216.285C417.86 216.033 418.167 215.84 418.506 215.72C418.844 215.601 419.205 215.556 419.562 215.59L423.194 207.673L425.598 211.51L421.78 218.44C421.683 219.035 421.37 219.574 420.901 219.955C420.432 220.336 419.84 220.531 419.236 220.505C418.632 220.479 418.059 220.233 417.625 219.813C417.19 219.393 416.926 218.829 416.881 218.228Z" fill="#FFB8B8"/>
<path d="M423.169 215.44C422.945 215.44 422.727 215.372 422.543 215.245L420.828 214.06C420.643 213.932 420.501 213.749 420.423 213.538C420.345 213.326 420.334 213.096 420.391 212.878L422.407 205.281L419.97 191.174C419.967 190.71 420.056 190.25 420.232 189.82C420.408 189.39 420.666 188.999 420.994 188.669C421.321 188.339 421.71 188.076 422.139 187.896C422.568 187.717 423.028 187.623 423.493 187.621C423.959 187.618 424.42 187.708 424.851 187.883C425.281 188.059 425.673 188.318 426.003 188.645C426.334 188.971 426.596 189.36 426.776 189.788C426.956 190.216 427.049 190.676 427.051 191.14L429.048 199.942C429.654 202.613 429.268 205.414 427.96 207.822L424.135 214.866C424.061 215.001 423.96 215.119 423.838 215.213C423.715 215.307 423.574 215.374 423.424 215.41C423.341 215.43 423.255 215.44 423.169 215.44Z" fill="#3F3D56"/>
<path d="M441.756 259H395.354C395.289 259 395.227 258.974 395.181 258.929C395.135 258.883 395.11 258.821 395.11 258.756C395.11 258.692 395.135 258.63 395.181 258.584C395.227 258.538 395.289 258.513 395.354 258.513H441.756C441.821 258.513 441.883 258.538 441.928 258.584C441.974 258.63 442 258.692 442 258.756C442 258.821 441.974 258.883 441.928 258.929C441.883 258.974 441.821 259 441.756 259Z" fill="#CCCCCC"/>
<path d="M318.8 255.968L321.795 255.968L323.219 244.446H318.8L318.8 255.968Z" fill="#A0616A"/>
<path d="M318.037 254.993L323.933 254.993H323.933C324.427 254.993 324.916 255.09 325.371 255.278C325.827 255.467 326.242 255.743 326.591 256.091C326.94 256.439 327.216 256.852 327.405 257.307C327.594 257.762 327.691 258.25 327.691 258.742V258.864L318.037 258.864L318.037 254.993Z" fill="#2F2E41"/>
<path d="M306.834 255.968L309.828 255.968L311.252 244.446H306.833L306.834 255.968Z" fill="#A0616A"/>
<path d="M306.07 254.993L311.966 254.993H311.967C312.46 254.993 312.949 255.09 313.405 255.278C313.861 255.467 314.275 255.743 314.624 256.091C314.973 256.439 315.249 256.852 315.438 257.307C315.627 257.762 315.724 258.25 315.724 258.742V258.864L306.07 258.864L306.07 254.993Z" fill="#2F2E41"/>
<path d="M319.398 176.197C322.711 176.197 325.396 173.518 325.396 170.213C325.396 166.907 322.711 164.228 319.398 164.228C316.085 164.228 313.4 166.907 313.4 170.213C313.4 173.518 316.085 176.197 319.398 176.197Z" fill="#A0616A"/>
<path d="M323.432 253.481H317.876C317.73 253.481 317.586 253.453 317.452 253.397C317.318 253.341 317.196 253.259 317.094 253.156C316.992 253.052 316.911 252.93 316.856 252.795C316.802 252.661 316.775 252.517 316.777 252.372L317.1 226.048C317.101 225.955 317.066 225.864 317.002 225.796C316.939 225.727 316.851 225.685 316.758 225.679C316.664 225.673 316.572 225.702 316.5 225.762C316.427 225.822 316.381 225.907 316.37 225.999L313.136 252.517C313.103 252.783 312.974 253.028 312.773 253.206C312.572 253.383 312.313 253.481 312.045 253.481H306.435C306.284 253.481 306.134 253.45 305.995 253.39C305.856 253.329 305.731 253.241 305.629 253.13C305.526 253.019 305.447 252.887 305.397 252.745C305.347 252.602 305.328 252.45 305.34 252.3L309.044 205.01L309.145 204.999L326.882 203.088L324.53 252.437C324.516 252.719 324.395 252.984 324.191 253.179C323.986 253.373 323.714 253.482 323.432 253.481Z" fill="#2F2E41"/>
<path d="M309.26 207.913C308.975 207.913 308.701 207.802 308.497 207.603C308.293 207.405 308.174 207.136 308.165 206.851C308.068 203.861 307.902 193.515 309.831 185.919C310.357 183.844 311.539 181.993 313.201 180.64C314.863 179.287 316.918 178.503 319.061 178.405C321.17 178.29 323.262 178.841 325.04 179.979C326.818 181.117 328.192 182.785 328.966 184.746C332.208 192.958 335.271 203.081 331.452 204.668C326.447 206.749 313.252 207.677 309.327 207.911C309.305 207.913 309.282 207.913 309.26 207.913Z" fill="#3F3D56"/>
<path d="M332.185 164.164C332.279 164.26 332.381 164.35 332.49 164.43L331.86 176.498L329.241 177.836L330.748 182.043L335.615 180.125C336.008 179.97 336.34 179.691 336.562 179.332C336.783 178.973 336.882 178.551 336.842 178.131L335.567 164.442C335.985 164.132 336.297 163.702 336.464 163.21C336.63 162.717 336.642 162.186 336.499 161.687C336.355 161.188 336.063 160.744 335.66 160.415C335.257 160.085 334.764 159.886 334.245 159.843C333.726 159.8 333.207 159.916 332.756 160.175C332.304 160.435 331.943 160.825 331.719 161.294C331.496 161.763 331.42 162.288 331.504 162.801C331.587 163.314 331.825 163.789 332.185 164.164Z" fill="#A0616A"/>
<path d="M331.91 176.947L333.752 182.171C333.804 182.32 333.824 182.478 333.81 182.635C333.795 182.792 333.747 182.944 333.669 183.08C333.59 183.217 333.483 183.335 333.355 183.427C333.226 183.519 333.079 183.582 332.924 183.612L327.491 184.661C326.728 184.925 325.891 184.875 325.163 184.523C324.436 184.172 323.878 183.547 323.612 182.785C323.346 182.024 323.394 181.189 323.744 180.462C324.095 179.736 324.72 179.178 325.482 178.91L330.36 176.341C330.5 176.268 330.654 176.225 330.811 176.216C330.969 176.208 331.127 176.233 331.274 176.29C331.421 176.348 331.554 176.436 331.664 176.55C331.773 176.663 331.857 176.799 331.91 176.947V176.947Z" fill="#3F3D56"/>
<path d="M306.203 164.164C306.109 164.26 306.007 164.35 305.899 164.43L306.529 176.498L309.148 177.836L307.641 182.043L302.774 180.125C302.38 179.97 302.048 179.691 301.827 179.332C301.605 178.973 301.507 178.551 301.546 178.131L302.821 164.442C302.404 164.132 302.091 163.702 301.925 163.21C301.759 162.717 301.746 162.186 301.89 161.687C302.034 161.188 302.326 160.744 302.729 160.415C303.131 160.085 303.625 159.886 304.143 159.843C304.662 159.8 305.182 159.916 305.633 160.175C306.084 160.435 306.446 160.825 306.669 161.294C306.893 161.763 306.968 162.288 306.885 162.801C306.802 163.314 306.564 163.789 306.203 164.164H306.203Z" fill="#A0616A"/>
<path d="M307.115 176.29C307.262 176.233 307.419 176.207 307.577 176.216C307.735 176.225 307.889 176.268 308.028 176.341L312.906 178.91C313.669 179.178 314.294 179.736 314.644 180.462C314.995 181.189 315.042 182.024 314.776 182.785C314.51 183.547 313.952 184.172 313.225 184.523C312.498 184.875 311.661 184.925 310.897 184.661L305.464 183.612C305.309 183.582 305.162 183.519 305.034 183.427C304.906 183.335 304.798 183.217 304.72 183.08C304.641 182.944 304.593 182.792 304.579 182.635C304.564 182.478 304.584 182.32 304.637 182.171L306.479 176.947C306.531 176.799 306.615 176.663 306.725 176.549C306.835 176.436 306.968 176.348 307.115 176.29Z" fill="#3F3D56"/>
<path d="M321.728 171.233C321.696 170.469 321.888 169.713 322.28 169.057C322.672 168.401 323.248 167.872 323.936 167.537C325.759 166.598 326.904 164.595 326.403 162.765C325.76 160.424 322.566 158.906 319.978 159.711C319.278 159.959 318.602 160.272 317.961 160.647L316.27 161.551C315.548 161.912 314.851 162.322 314.186 162.778C313.189 163.511 312.408 164.498 311.923 165.635C311.439 166.772 311.27 168.018 311.433 169.243C311.766 171.623 313.329 173.806 315.467 175.301C316.285 175.91 317.23 176.329 318.232 176.526C319.257 176.695 320.398 176.503 321.148 175.867C322.319 174.873 322.198 173.209 321.819 171.819C321.769 171.627 321.738 171.431 321.728 171.233Z" fill="#2F2E41"/>
<path d="M342.114 259H295.712C295.647 259 295.585 258.974 295.539 258.929C295.493 258.883 295.467 258.821 295.467 258.756C295.467 258.692 295.493 258.63 295.539 258.584C295.585 258.538 295.647 258.513 295.712 258.513H342.114C342.178 258.513 342.24 258.538 342.286 258.584C342.332 258.63 342.358 258.692 342.358 258.756C342.358 258.821 342.332 258.883 342.286 258.929C342.24 258.974 342.178 259 342.114 259Z" fill="#CCCCCC"/>
<path d="M266.383 214.549L228.095 230.221C227.437 230.489 226.7 230.486 226.044 230.213C225.389 229.939 224.869 229.418 224.599 228.762L212.878 200.257C212.681 199.777 212.683 199.238 212.884 198.759C213.085 198.28 213.468 197.9 213.949 197.702L253.532 181.5C254.022 181.3 254.571 181.303 255.06 181.506C255.548 181.71 255.936 182.099 256.137 182.588L267.845 211.061C268.114 211.717 268.111 212.453 267.837 213.107C267.563 213.76 267.04 214.279 266.383 214.549Z" fill="#E6E6E6"/>
<path d="M229.482 226.763L262.962 213.059C263.6 212.799 264.107 212.296 264.373 211.661C264.639 211.027 264.641 210.313 264.38 209.677L254.915 186.66C254.786 186.345 254.595 186.058 254.355 185.817C254.115 185.575 253.829 185.383 253.514 185.252C253.199 185.121 252.862 185.053 252.52 185.051C252.179 185.05 251.841 185.116 251.525 185.245L218.045 198.949C217.729 199.078 217.442 199.268 217.2 199.508C216.958 199.748 216.766 200.033 216.634 200.348C216.502 200.662 216.434 200.998 216.433 201.339C216.432 201.679 216.498 202.017 216.627 202.332L226.091 225.349C226.221 225.664 226.411 225.95 226.652 226.192C226.892 226.433 227.178 226.625 227.493 226.757C227.808 226.888 228.145 226.956 228.487 226.957C228.828 226.959 229.166 226.893 229.482 226.763Z" fill="white"/>
<path d="M254.73 192.937L254.238 193.138L254.272 193.22L254.764 193.019L254.73 192.937Z" fill="#E6E6E6"/>
<path d="M253.277 193.627L252.283 194.034L252.249 193.952L253.244 193.545L253.277 193.627ZM251.289 194.441L250.294 194.848L250.261 194.767L251.255 194.36L251.289 194.441ZM249.3 195.255L248.305 195.662L248.272 195.581L249.266 195.174L249.3 195.255ZM247.311 196.069L246.317 196.476L246.283 196.395L247.277 195.988L247.311 196.069ZM245.322 196.884L244.328 197.291L244.294 197.209L245.289 196.802L245.322 196.884ZM243.333 197.698L242.339 198.105L242.305 198.023L243.3 197.616L243.333 197.698ZM241.345 198.512L240.35 198.919L240.316 198.837L241.311 198.43L241.345 198.512ZM239.356 199.326L238.361 199.733L238.328 199.651L239.322 199.244L239.356 199.326ZM237.367 200.14L236.372 200.547L236.339 200.465L237.333 200.058L237.367 200.14ZM235.378 200.954L234.384 201.361L234.35 201.279L235.344 200.872L235.378 200.954ZM233.389 201.768L232.395 202.175L232.361 202.093L233.356 201.686L233.389 201.768ZM231.4 202.582L230.406 202.989L230.372 202.907L231.367 202.5L231.4 202.582ZM229.412 203.396L228.417 203.803L228.384 203.721L229.378 203.314L229.412 203.396ZM227.423 204.21L226.428 204.617L226.395 204.535L227.389 204.128L227.423 204.21ZM225.434 205.024L224.44 205.431L224.406 205.349L225.4 204.942L225.434 205.024ZM223.445 205.838L222.451 206.245L222.417 206.163L223.412 205.756L223.445 205.838Z" fill="#E6E6E6"/>
<path d="M221.423 206.57L220.93 206.772L220.964 206.854L221.456 206.652L221.423 206.57Z" fill="#E6E6E6"/>
<path d="M241.699 207.164L241.207 207.366L241.24 207.448L241.732 207.246L241.699 207.164Z" fill="#E6E6E6"/>
<path d="M240.261 207.849L239.281 208.25L239.247 208.168L240.227 207.767L240.261 207.849ZM238.301 208.651L237.322 209.052L237.288 208.97L238.268 208.569L238.301 208.651ZM236.342 209.453L235.362 209.854L235.329 209.772L236.308 209.371L236.342 209.453ZM234.383 210.254L233.403 210.655L233.369 210.574L234.349 210.173L234.383 210.254ZM232.423 211.056L231.444 211.457L231.41 211.376L232.39 210.975L232.423 211.056ZM230.464 211.858L229.485 212.259L229.451 212.178L230.431 211.777L230.464 211.858ZM228.505 212.66L227.525 213.061L227.492 212.98L228.471 212.579L228.505 212.66ZM226.546 213.462L225.566 213.863L225.532 213.781L226.512 213.38L226.546 213.462Z" fill="#E6E6E6"/>
<path d="M224.553 214.182L224.061 214.384L224.094 214.466L224.586 214.264L224.553 214.182Z" fill="#E6E6E6"/>
<path d="M233.581 214.695L233.089 214.896L233.123 214.978L233.615 214.776L233.581 214.695Z" fill="#E6E6E6"/>
<path d="M232.115 215.39L231.107 215.803L231.073 215.721L232.081 215.309L232.115 215.39ZM230.099 216.216L229.091 216.628L229.057 216.546L230.065 216.134L230.099 216.216ZM228.083 217.041L227.075 217.453L227.042 217.371L228.049 216.959L228.083 217.041Z" fill="#E6E6E6"/>
<path d="M226.034 217.784L225.541 217.985L225.575 218.067L226.067 217.866L226.034 217.784Z" fill="#E6E6E6"/>
<path d="M236.108 220.841L235.616 221.042L235.65 221.124L236.142 220.922L236.108 220.841Z" fill="#E6E6E6"/>
<path d="M234.642 221.537L233.634 221.949L233.6 221.867L234.608 221.455L234.642 221.537ZM232.626 222.362L231.618 222.774L231.584 222.692L232.592 222.28L232.626 222.362ZM230.61 223.187L229.602 223.599L229.569 223.517L230.577 223.105L230.61 223.187Z" fill="#E6E6E6"/>
<path d="M228.561 223.93L228.069 224.131L228.102 224.213L228.594 224.012L228.561 223.93Z" fill="#E6E6E6"/>
<path d="M230.903 223.14L259.276 211.527C259.962 211.245 260.509 210.703 260.795 210.019C261.082 209.336 261.085 208.567 260.804 207.881L255.071 193.94L255.016 193.964L248.053 210.574L242.889 208.42C242.794 208.38 242.691 208.363 242.587 208.369C242.484 208.375 242.384 208.406 242.294 208.457C242.16 208.538 242.056 208.661 241.998 208.806L238.349 217.51L234.574 215.936C234.492 215.902 234.405 215.884 234.317 215.884C234.228 215.883 234.141 215.9 234.059 215.934C233.977 215.967 233.903 216.017 233.84 216.079C233.778 216.141 233.728 216.215 233.694 216.296C233.67 216.355 231.342 222.054 230.903 223.14Z" fill="#4EFF8D"/>
<path d="M230.816 223.271L230.734 223.237L233.654 216.272C233.731 216.088 233.878 215.942 234.063 215.867C234.248 215.791 234.455 215.791 234.64 215.868L238.341 217.412L241.969 208.756C242.046 208.572 242.194 208.427 242.378 208.351C242.563 208.275 242.771 208.276 242.955 208.353L248.045 210.476L255.043 193.779L255.125 193.813L248.092 210.592L242.921 208.434C242.84 208.401 242.754 208.383 242.667 208.383C242.579 208.383 242.493 208.399 242.412 208.432C242.331 208.466 242.258 208.514 242.196 208.576C242.134 208.637 242.084 208.71 242.051 208.79L238.388 217.528L234.606 215.95C234.443 215.882 234.26 215.882 234.097 215.948C233.934 216.015 233.804 216.144 233.735 216.306L230.816 223.271Z" fill="#3F3D56"/>
<path d="M233.598 215.355C233.941 215.355 234.219 215.078 234.219 214.736C234.219 214.393 233.941 214.116 233.598 214.116C233.255 214.116 232.977 214.393 232.977 214.736C232.977 215.078 233.255 215.355 233.598 215.355Z" fill="#3F3D56"/>
<path d="M241.716 207.825C242.058 207.825 242.336 207.547 242.336 207.205C242.336 206.863 242.058 206.586 241.716 206.586C241.373 206.586 241.095 206.863 241.095 207.205C241.095 207.547 241.373 207.825 241.716 207.825Z" fill="#3F3D56"/>
<path d="M254.356 193.575C254.699 193.575 254.976 193.298 254.976 192.956C254.976 192.614 254.699 192.337 254.356 192.337C254.013 192.337 253.735 192.614 253.735 192.956C253.735 193.298 254.013 193.575 254.356 193.575Z" fill="#3F3D56"/>
<path d="M219.613 214.033C219.935 213.873 220.219 213.644 220.443 213.362C220.668 213.081 220.828 212.754 220.912 212.404C220.996 212.055 221.002 211.691 220.93 211.338C220.858 210.986 220.709 210.654 220.494 210.365L222.338 192.382H218.354L216.889 209.941C216.426 210.334 216.124 210.881 216.039 211.481C215.955 212.08 216.093 212.69 216.429 213.194C216.765 213.699 217.274 214.063 217.861 214.217C218.448 214.372 219.071 214.306 219.613 214.033Z" fill="#FFB8B8"/>
<path d="M223.271 182.457C226.384 182.457 228.907 179.939 228.907 176.833C228.907 173.727 226.384 171.209 223.271 171.209C220.158 171.209 217.634 173.727 217.634 176.833C217.634 179.939 220.158 182.457 223.271 182.457Z" fill="#FFB8B8"/>
<path d="M224.332 202.855C224.106 202.854 223.887 202.781 223.707 202.644C223.528 202.508 223.398 202.316 223.338 202.099C222.887 200.462 221.712 197.694 219.846 193.872C219.425 193.008 219.192 192.065 219.162 191.105C219.132 190.145 219.306 189.189 219.672 188.301C220.039 187.412 220.589 186.611 221.287 185.95C221.986 185.289 222.816 184.782 223.725 184.464C224.586 184.161 225.499 184.033 226.41 184.088C227.321 184.143 228.212 184.379 229.03 184.784C229.848 185.188 230.576 185.753 231.172 186.443C231.768 187.133 232.218 187.936 232.498 188.803C233.944 193.326 233.874 198.171 233.777 200.044C233.765 200.27 233.679 200.485 233.532 200.657C233.386 200.83 233.187 200.949 232.966 200.998L224.553 202.831C224.481 202.847 224.406 202.855 224.332 202.855Z" fill="#FF6584"/>
<path d="M232.478 256.257H235.292L236.63 245.43L232.478 245.43L232.478 256.257Z" fill="#FFB8B8"/>
<path d="M240.718 258.864L231.875 258.864L231.875 255.455L237.301 255.455C237.75 255.455 238.194 255.543 238.609 255.715C239.023 255.886 239.4 256.137 239.717 256.453C240.035 256.77 240.286 257.146 240.458 257.559C240.63 257.973 240.718 258.416 240.718 258.864Z" fill="#2F2E41"/>
<path d="M204.344 252.619L206.81 253.972L213.211 245.127L209.573 243.131L204.344 252.619Z" fill="#FFB8B8"/>
<path d="M210.306 258.864L202.557 254.614L204.203 251.627L208.958 254.235C209.752 254.67 210.34 255.403 210.593 256.271C210.846 257.139 210.742 258.072 210.306 258.864Z" fill="#2F2E41"/>
<path d="M232.347 250.248C232.096 250.247 231.854 250.156 231.666 249.991C231.478 249.826 231.356 249.598 231.324 249.35L227.805 222.297C227.789 222.177 227.736 222.066 227.653 221.978C227.57 221.89 227.462 221.831 227.343 221.808C227.224 221.786 227.101 221.801 226.992 221.853C226.882 221.904 226.792 221.989 226.734 222.094L212.069 248.639C211.948 248.856 211.753 249.022 211.52 249.108C211.286 249.193 211.03 249.192 210.797 249.105L207.601 247.89C207.472 247.841 207.355 247.767 207.255 247.672C207.156 247.577 207.076 247.464 207.021 247.338C206.966 247.212 206.937 247.076 206.936 246.939C206.934 246.802 206.96 246.666 207.012 246.539L217.17 221.641C217.196 221.578 217.213 221.511 217.222 221.444C218.598 210.818 222.099 205.415 223.139 204.012C223.215 203.909 223.265 203.789 223.285 203.663C223.305 203.537 223.294 203.407 223.253 203.286L223.11 202.858C223.053 202.688 223.041 202.506 223.076 202.331C223.111 202.155 223.191 201.991 223.309 201.856C227.056 197.596 233.589 199.921 233.655 199.945L233.687 199.957L233.708 199.985C241.033 210.007 238.324 242.561 237.707 248.985C237.684 249.226 237.576 249.452 237.403 249.621C237.229 249.791 237.001 249.894 236.758 249.912L232.427 250.245C232.4 250.247 232.373 250.248 232.347 250.248Z" fill="#2F2E41"/>
<path d="M245.184 183.366C245.156 183.489 245.137 183.615 245.129 183.741L235.27 189.416L232.874 188.039L230.319 191.376L234.324 194.224C234.648 194.454 235.037 194.573 235.435 194.563C235.832 194.554 236.215 194.416 236.527 194.17L246.693 186.169C247.152 186.338 247.651 186.364 248.125 186.243C248.599 186.123 249.025 185.861 249.346 185.493C249.667 185.124 249.869 184.667 249.923 184.182C249.978 183.697 249.883 183.207 249.651 182.777C249.42 182.347 249.063 181.998 248.627 181.775C248.192 181.553 247.699 181.468 247.214 181.532C246.729 181.596 246.275 181.805 245.912 182.133C245.549 182.461 245.295 182.891 245.184 183.366Z" fill="#FFB8B8"/>
<path d="M234.941 189.684L231.754 193.805C231.664 193.922 231.549 194.018 231.418 194.087C231.286 194.156 231.141 194.196 230.993 194.204C230.845 194.212 230.697 194.188 230.559 194.134C230.421 194.08 230.296 193.996 230.193 193.89L226.586 190.153C225.987 189.687 225.599 189.003 225.505 188.251C225.411 187.499 225.62 186.741 226.085 186.142C226.551 185.544 227.235 185.154 227.989 185.059C228.742 184.963 229.502 185.169 230.103 185.632L234.627 188.156C234.757 188.228 234.869 188.327 234.957 188.447C235.044 188.566 235.105 188.703 235.135 188.849C235.165 188.994 235.163 189.143 235.129 189.288C235.096 189.432 235.031 189.567 234.941 189.684Z" fill="#FF6584"/>
<path d="M222.591 196.843L217.458 195.918C217.312 195.892 217.174 195.834 217.052 195.75C216.93 195.665 216.828 195.555 216.753 195.428C216.677 195.3 216.63 195.158 216.615 195.011C216.599 194.863 216.616 194.715 216.663 194.574L218.327 189.659C218.467 188.914 218.896 188.255 219.522 187.825C220.147 187.396 220.918 187.232 221.665 187.369C222.412 187.505 223.074 187.932 223.506 188.555C223.938 189.178 224.104 189.947 223.969 190.692L223.807 195.861C223.802 196.009 223.766 196.154 223.7 196.287C223.634 196.42 223.54 196.536 223.424 196.63C223.309 196.723 223.175 196.79 223.031 196.827C222.887 196.863 222.737 196.869 222.591 196.843H222.591Z" fill="#FF6584"/>
<path d="M224.163 175.54C225.611 176.529 227.514 177.546 228.993 176.492C229.456 176.141 229.792 175.649 229.952 175.091C230.111 174.532 230.085 173.938 229.877 173.395C229.169 171.374 227.222 170.484 225.36 169.802C222.941 168.915 220.306 168.209 217.808 168.845C215.309 169.48 213.102 171.893 213.553 174.425C213.915 176.462 215.841 178.156 215.567 180.207C215.292 182.27 212.966 183.356 210.913 183.725C208.859 184.094 206.561 184.213 205.086 185.684C203.203 187.561 203.673 190.917 205.445 192.899C207.216 194.881 209.889 195.779 212.48 196.39C215.912 197.199 219.624 197.625 222.883 196.282C226.143 194.939 228.679 191.324 227.735 187.933C227.336 186.502 226.397 185.291 225.488 184.113C224.58 182.935 223.661 181.703 223.315 180.258C223.026 179.053 223.24 177.654 224.04 176.751C224.186 176.593 224.278 176.393 224.302 176.179C224.327 175.966 224.283 175.75 224.177 175.563L224.163 175.54Z" fill="#2F2E41"/>
<path d="M245.646 259H199.244C199.179 259 199.117 258.974 199.072 258.929C199.026 258.883 199 258.821 199 258.756C199 258.692 199.026 258.63 199.072 258.584C199.117 258.538 199.179 258.513 199.244 258.513H245.646C245.711 258.513 245.773 258.538 245.819 258.584C245.865 258.63 245.89 258.692 245.89 258.756C245.89 258.821 245.865 258.883 245.819 258.929C245.773 258.974 245.711 259 245.646 259Z" fill="#CCCCCC"/>
</g>
<defs>
<clipPath id="clip0_372_691">
<rect width="240" height="235" fill="white"/>
</clipPath>
<clipPath id="clip1_372_691">
<rect width="243" height="170" fill="white" transform="translate(199 89)"/>
</clipPath>
</defs>
</svg>
