<svg width="14" height="17" viewBox="0 0 14 17" fill="none" xmlns="http://www.w3.org/2000/svg">
<path d="M7.00016 16.3333C7.91683 16.3333 8.66683 15.5833 8.66683 14.6666H5.3335C5.3335 15.5833 6.0835 16.3333 7.00016 16.3333ZM12.0002 11.3333V7.16665C12.0002 4.60831 10.6418 2.46665 8.25016 1.89998V1.33331C8.25016 0.641646 7.69183 0.083313 7.00016 0.083313C6.3085 0.083313 5.75016 0.641646 5.75016 1.33331V1.89998C3.36683 2.46665 2.00016 4.59998 2.00016 7.16665V11.3333L0.333496 13V13.8333H13.6668V13L12.0002 11.3333ZM10.3335 12.1666H3.66683V7.16665C3.66683 5.09998 4.92516 3.41665 7.00016 3.41665C9.07516 3.41665 10.3335 5.09998 10.3335 7.16665V12.1666Z" fill="#54BA7D"/>
</svg>
