<svg width="92" height="92" viewBox="0 0 92 92" fill="none" xmlns="http://www.w3.org/2000/svg">
<path d="M41.2495 22.9169H50.4162V32.0836H41.2495V22.9169ZM41.2495 41.2502H50.4162V68.7502H41.2495V41.2502ZM45.8328 0.000244141C20.5328 0.000244141 -0.000488281 20.5336 -0.000488281 45.8336C-0.000488281 71.1336 20.5328 91.6669 45.8328 91.6669C71.1328 91.6669 91.6662 71.1336 91.6662 45.8336C91.6662 20.5336 71.1328 0.000244141 45.8328 0.000244141ZM45.8328 82.5002C25.6203 82.5002 9.16618 66.0461 9.16618 45.8336C9.16618 25.6211 25.6203 9.16691 45.8328 9.16691C66.0453 9.16691 82.4995 25.6211 82.4995 45.8336C82.4995 66.0461 66.0453 82.5002 45.8328 82.5002Z" fill="#E0E0E0"/>
</svg>
