<svg width="current" height="current" viewBox="0 0 14 8" fill="none" xmlns="http://www.w3.org/2000/svg">
<path d="M10.2334 0.566667L11.1934 1.52667L7.94003 4.78L5.74669 2.58667C5.48669 2.32667 5.06669 2.32667 4.80669 2.58667L0.806694 6.59333C0.546694 6.85333 0.546694 7.27333 0.806694 7.53333C1.06669 7.79333 1.48669 7.79333 1.74669 7.53333L5.27336 4L7.46669 6.19333C7.72669 6.45333 8.14669 6.45333 8.40669 6.19333L12.1334 2.47333L13.0934 3.43333C13.3 3.64 13.66 3.49333 13.66 3.2V0.333333C13.6667 0.146667 13.52 0 13.3334 0H10.4734C10.1734 0 10.0267 0.36 10.2334 0.566667Z" fill="black"/>
</svg>
